<?xml version="1.0" encoding="UTF-8" standalone="no"?>
<svg
   xmlns:dc="http://purl.org/dc/elements/1.1/"
   xmlns:cc="http://creativecommons.org/ns#"
   xmlns:rdf="http://www.w3.org/1999/02/22-rdf-syntax-ns#"
   xmlns:svg="http://www.w3.org/2000/svg"
   xmlns="http://www.w3.org/2000/svg"
   xmlns:sodipodi="http://sodipodi.sourceforge.net/DTD/sodipodi-0.dtd"
   xmlns:inkscape="http://www.inkscape.org/namespaces/inkscape"
   version="1.1"
   style="overflow:visible"
   viewBox="-150 -150 350 350"
   height="1400"
   width="1400"
   id="svg7487"
   sodipodi:docname="0KY.svg"
   inkscape:version="0.92.5 (2060ec1f9f, 2020-04-08)">
  <metadata
     id="metadata7493">
    <rdf:RDF>
      <cc:Work
         rdf:about="">
        <dc:format>image/svg+xml</dc:format>
        <dc:type
           rdf:resource="http://purl.org/dc/dcmitype/StillImage" />
        <dc:title></dc:title>
      </cc:Work>
    </rdf:RDF>
  </metadata>
  <defs
     id="defs7491" />
  <sodipodi:namedview
     pagecolor="#ffffff"
     bordercolor="#666666"
     borderopacity="1"
     objecttolerance="10"
     gridtolerance="10"
     guidetolerance="10"
     inkscape:pageopacity="0"
     inkscape:pageshadow="2"
     inkscape:window-width="930"
     inkscape:window-height="617"
     id="namedview7489"
     showgrid="false"
     inkscape:zoom="0.19666667"
     inkscape:cx="-671.39049"
     inkscape:cy="700.00003"
     inkscape:window-x="158"
     inkscape:window-y="33"
     inkscape:window-maximized="0"
     inkscape:current-layer="g7483"
     fit-margin-top="100"
     fit-margin-left="100"
     fit-margin-right="100"
     fit-margin-bottom="100" />
  <rect
     height="300"
     width="300"
     y="-125"
     x="-125"
     id="rect7475"
     style="fill:#000000;fill-opacity:0" />
  <g
     style="fill:#ffffff;stroke-linejoin:round"
     id="g7483"
     transform="translate(25,25)">
    <path
       style="fill:#f7eaa6;fill-opacity:1;stroke:none;stroke-width:0.89999998;stroke-linecap:butt;stroke-linejoin:round"
       inkscape:connector-curvature="0"
       id="path7477"
       d="M 0.00178,-132.3 -88.43528,-85.666497 -110.54405,132.3 h 221.0877 L 88.43488,-85.666497 Z" />
    <path
       style="fill:#000000;stroke:none;stroke-width:0.89999998;stroke-linecap:butt;stroke-linejoin:round"
       inkscape:connector-curvature="0"
       id="path7479"
       d="M -45.19262,25.947002 C -32.25656,18.051005 -20.32859,8.1389724 -10.75259,-2.9490276 V 22.082942 H 10.07944 V -2.7810876 c 10.75194,11.088 23.688,20.9999696 37.296,28.7279996 z m 14.112,47.04003 v -9.24003 h 63.33606 v 9.24003 z m 63.33606,-22.84803 h -63.33606 v -9.072 H 32.25544 Z M 74.75947,-7.6529685 V -25.460999 H 10.07944 v -13.77603 c 16.79994,-2.016 32.92794,-4.536 46.872,-8.064 l -14.112,-15.95997 c -25.2,6.216003 -67.032,10.24803 -103.824,11.592 2.016,4.536 4.36797,12.096 4.87197,16.96797 14.78403,-0.336006 30.07197,-1.176003 45.36,-2.52 v 11.76003 h -64.34397 v 17.8080305 h 45.52794 c -13.608,11.92797 -31.91994,22.3440295 -50.23197,27.8880295 4.20003,4.032 9.91197,11.592 12.93597,16.29603 5.37606,-2.016 10.584,-4.367997 15.79203,-7.223994 v 64.008002 h 19.99197 v -5.208005 h 63.33606 v 5.040002 H 53.25541 V 29.139094 c 4.70403,2.351997 9.072,4.367997 13.77603,6.048 2.85597,-4.704003 8.568,-12.096 12.76803,-15.95997 C 61.82341,13.683124 43.17541,3.6031245 29.06341,-7.6529055 Z" />
    <path
       style="fill:none;stroke:#000000;stroke-width:9;stroke-linecap:butt;stroke-linejoin:round;stroke-opacity:1"
       inkscape:connector-curvature="0"
       id="path7481"
       d="M 0.00178,-132.3 -88.43528,-85.666497 -110.54405,132.3 h 221.0877 L 88.43488,-85.666497 Z" />
  </g>
</svg>
