<?xml version="1.0" encoding="UTF-8" standalone="no"?>
<svg
   xmlns:dc="http://purl.org/dc/elements/1.1/"
   xmlns:cc="http://creativecommons.org/ns#"
   xmlns:rdf="http://www.w3.org/1999/02/22-rdf-syntax-ns#"
   xmlns:svg="http://www.w3.org/2000/svg"
   xmlns="http://www.w3.org/2000/svg"
   xmlns:sodipodi="http://sodipodi.sourceforge.net/DTD/sodipodi-0.dtd"
   xmlns:inkscape="http://www.inkscape.org/namespaces/inkscape"
   version="1.1"
   style="overflow:visible"
   viewBox="-150 -150 350 350"
   height="1400"
   width="1400"
   id="svg11062"
   sodipodi:docname="0UM.svg"
   inkscape:version="0.92.5 (2060ec1f9f, 2020-04-08)">
  <metadata
     id="metadata11068">
    <rdf:RDF>
      <cc:Work
         rdf:about="">
        <dc:format>image/svg+xml</dc:format>
        <dc:type
           rdf:resource="http://purl.org/dc/dcmitype/StillImage" />
        <dc:title></dc:title>
      </cc:Work>
    </rdf:RDF>
  </metadata>
  <defs
     id="defs11066" />
  <sodipodi:namedview
     pagecolor="#ffffff"
     bordercolor="#666666"
     borderopacity="1"
     objecttolerance="10"
     gridtolerance="10"
     guidetolerance="10"
     inkscape:pageopacity="0"
     inkscape:pageshadow="2"
     inkscape:window-width="961"
     inkscape:window-height="615"
     id="namedview11064"
     showgrid="false"
     inkscape:zoom="0.19666667"
     inkscape:cx="-723.72881"
     inkscape:cy="700.00003"
     inkscape:window-x="213"
     inkscape:window-y="87"
     inkscape:window-maximized="0"
     inkscape:current-layer="g11058"
     fit-margin-top="100"
     fit-margin-left="100"
     fit-margin-right="100"
     fit-margin-bottom="100" />
  <rect
     height="300"
     width="300"
     y="-125"
     x="-125"
     id="rect11050"
     style="fill:#000000;fill-opacity:0" />
  <g
     style="fill:#ffffff;stroke-linejoin:round"
     id="g11058"
     transform="translate(25,25)">
    <path
       style="fill:#f7eaa6;fill-opacity:1;stroke:none;stroke-width:0.89999998;stroke-linecap:butt;stroke-linejoin:round"
       inkscape:connector-curvature="0"
       id="path11052"
       d="M 0.00178,-132.3 -88.43528,-85.666497 -110.54405,132.3 h 221.0877 L 88.43488,-85.666497 Z" />
    <path
       style="fill:#b10000;fill-opacity:1;stroke:none;stroke-width:0.89999998;stroke-linecap:butt;stroke-linejoin:round"
       inkscape:connector-curvature="0"
       id="path11054"
       d="m -63.694693,93.410489 c 11.25594,-10.08 16.128,-26.54397 19.31994,-43.00803 l -17.64,-4.872006 c -2.52,14.78403 -8.23194,28.896029 -17.80794,37.8 z m 25.53597,-40.15197 c 3.024,10.91997 5.37597,25.36803 5.544,34.776 l 17.80803,-3.024 c -0.504,-9.40797 -3.024,-23.51997 -6.552,-34.44003 z m 28.8960293,-0.504 c 4.19994,9.91197 8.064,23.01597 9.07199996,31.07997 L 16.273276,79.466492 c -1.34397,-8.232003 -5.71203,-20.99997 -10.0799997,-30.57597 z m -29.0640603,-39.312 h 30.4080303 v 10.584 H -38.326754 Z m 30.4080303,-52.08003 v 10.41597 H -38.326754 v -10.41597 z m 0,36.6239707 H -38.326754 V -12.429511 H -7.9187237 Z M 11.905306,24.026429 v -10.584 h 44.68797 V -2.0135403 H 11.905306 V -12.429511 h 44.68797 v -15.79203 h -44.68797 v -10.41597 h 50.56794 v -17.136 h -120.456 v 97.1037 h 111.7197 c -1.512,21.672 -3.36006,30.57597 -5.71203,33.43203 -1.512,1.680003 -3.024,1.848006 -5.71203,1.848006 -2.85597,0.167994 -9.072,0 -15.79194,-0.672003 3.024,5.208003 5.20794,12.76803 5.544,18.47997 8.23194,0.336006 15.79194,0.168003 20.49597,-0.504 5.20803,-0.671994 8.90397,-2.183994 12.6,-6.383997 4.87197,-5.544 7.056,-20.49597 9.24003,-55.60803 0.16794,-2.688003 0.33597,-7.895997 0.33597,-7.895997 z m 32.59197,44.352 c -2.18403,-6.552 -7.56,-16.128 -12.6,-23.35203 l -14.44797,4.872006 c 4.87197,7.391996 9.74394,17.64 11.592,24.02397 z" />
    <path
       style="fill:none;stroke:#000000;stroke-width:9;stroke-linecap:butt;stroke-linejoin:round;stroke-opacity:1"
       inkscape:connector-curvature="0"
       id="path11056"
       d="M 0.00178,-132.3 -88.43528,-85.666497 -110.54405,132.3 h 221.0877 L 88.43488,-85.666497 Z" />
  </g>
</svg>
