<?xml version="1.0" encoding="UTF-8" standalone="no"?>
<svg
   xmlns:dc="http://purl.org/dc/elements/1.1/"
   xmlns:cc="http://creativecommons.org/ns#"
   xmlns:rdf="http://www.w3.org/1999/02/22-rdf-syntax-ns#"
   xmlns:svg="http://www.w3.org/2000/svg"
   xmlns="http://www.w3.org/2000/svg"
   xmlns:sodipodi="http://sodipodi.sourceforge.net/DTD/sodipodi-0.dtd"
   xmlns:inkscape="http://www.inkscape.org/namespaces/inkscape"
   version="1.1"
   style="overflow:visible"
   viewBox="-150 -150 350 350"
   height="1400"
   width="1400"
   id="svg3764"
   sodipodi:docname="1KI.svg"
   inkscape:version="0.92.5 (2060ec1f9f, 2020-04-08)">
  <metadata
     id="metadata3770">
    <rdf:RDF>
      <cc:Work
         rdf:about="">
        <dc:format>image/svg+xml</dc:format>
        <dc:type
           rdf:resource="http://purl.org/dc/dcmitype/StillImage" />
        <dc:title></dc:title>
      </cc:Work>
    </rdf:RDF>
  </metadata>
  <defs
     id="defs3768" />
  <sodipodi:namedview
     pagecolor="#ffffff"
     bordercolor="#666666"
     borderopacity="1"
     objecttolerance="10"
     gridtolerance="10"
     guidetolerance="10"
     inkscape:pageopacity="0"
     inkscape:pageshadow="2"
     inkscape:window-width="1054"
     inkscape:window-height="690"
     id="namedview3766"
     showgrid="false"
     inkscape:zoom="0.19666667"
     inkscape:cx="-2945.7627"
     inkscape:cy="700.00003"
     inkscape:window-x="156"
     inkscape:window-y="61"
     inkscape:window-maximized="0"
     inkscape:current-layer="g3760"
     fit-margin-top="100"
     fit-margin-left="100"
     fit-margin-right="100"
     fit-margin-bottom="100" />
  <rect
     height="300"
     width="300"
     y="-175"
     x="-175"
     id="rect3752"
     style="fill:#000000;fill-opacity:0"
     transform="scale(-1)" />
  <g
     style="fill:#ffffff;stroke-linejoin:round"
     id="g3760"
     transform="translate(25,25)">
    <path
       style="fill:#f7eaa6;fill-opacity:1;stroke:none;stroke-width:0.89999998;stroke-linecap:butt;stroke-linejoin:round"
       inkscape:connector-curvature="0"
       id="path3754"
       d="M -0.00178,132.3 88.43528,85.666497 110.54405,-132.3 h -221.0877 l 22.10877,217.966497 z" />
    <path
       style="fill:#000000;stroke:none;stroke-width:0.89999998;stroke-linecap:butt;stroke-linejoin:round"
       inkscape:connector-curvature="0"
       id="path3756"
       d="m 11.760321,-37.707302 v -33.59997 h 22.68 l -13.77603,5.880006 c 2.52,7.727994 9.072,19.152 15.45597,27.72 z m 18.98397,51.23997 c -12.096,10.08 -22.5119701,20.99997 -29.7360001,31.07997 -7.39197,-10.08 -18.4799699,-20.99997 -30.9120299,-31.07997 z m -63.33597,-51.23997 c 3.695942,-8.904006 10.41597,-21.168 15.95997,-29.06397 l -10.91997,-4.536 h 18.3119399 v 33.59997 H -60.983709 v 17.136 H -9.2397391 V -3.9393024 H -41.327709 v 8.736003 c -8.39997,-6.048 -17.136,-11.592 -25.53597,-15.9599696 -3.69603,6.2160026 -8.23203,12.9359696 -13.27203,17.9759696 26.54397,10.7520304 53.59203,31.9200304 71.7360299,57.2879704 H 12.264321 c 12.43197,-20.16 39.312,-45.36 67.87197,-59.3039704 -4.36797,-4.20000296 -9.91197,-11.42397 -12.43197,-16.1279996 -8.568,4.5359996 -17.136,9.9119696 -25.03206,15.6239996 v -8.232003 H 11.760321 V -20.571302 h 51.07194 v -17.136 h -25.704 l 15.28803,-6.552 c -5.87997,-8.232003 -11.42397,-19.48797 -13.94397,-27.04797 h 32.76 v -17.136 h -142.128 v 17.136 h 37.96794 c -5.87997,7.056 -12.43197,17.30403 -18.81594,26.54397 z" />
    <path
       style="fill:none;stroke:#000000;stroke-width:9;stroke-linecap:butt;stroke-linejoin:round;stroke-opacity:1"
       inkscape:connector-curvature="0"
       id="path3758"
       d="M -0.00178,132.3 88.43528,85.666497 110.54405,-132.3 h -221.0877 l 22.10877,217.966497 z" />
  </g>
</svg>
