<?xml version="1.0" encoding="UTF-8" standalone="no"?>
<svg
   xmlns:dc="http://purl.org/dc/elements/1.1/"
   xmlns:cc="http://creativecommons.org/ns#"
   xmlns:rdf="http://www.w3.org/1999/02/22-rdf-syntax-ns#"
   xmlns:svg="http://www.w3.org/2000/svg"
   xmlns="http://www.w3.org/2000/svg"
   xmlns:sodipodi="http://sodipodi.sourceforge.net/DTD/sodipodi-0.dtd"
   xmlns:inkscape="http://www.inkscape.org/namespaces/inkscape"
   version="1.1"
   style="overflow:visible"
   viewBox="-150 -150 350 350"
   height="1400"
   width="1400"
   id="svg4481"
   sodipodi:docname="0GI.svg"
   inkscape:version="0.92.5 (2060ec1f9f, 2020-04-08)">
  <metadata
     id="metadata4487">
    <rdf:RDF>
      <cc:Work
         rdf:about="">
        <dc:format>image/svg+xml</dc:format>
        <dc:type
           rdf:resource="http://purl.org/dc/dcmitype/StillImage" />
        <dc:title></dc:title>
      </cc:Work>
    </rdf:RDF>
  </metadata>
  <defs
     id="defs4485" />
  <sodipodi:namedview
     pagecolor="#ffffff"
     bordercolor="#666666"
     borderopacity="1"
     objecttolerance="10"
     gridtolerance="10"
     guidetolerance="10"
     inkscape:pageopacity="0"
     inkscape:pageshadow="2"
     inkscape:window-width="1024"
     inkscape:window-height="720"
     id="namedview4483"
     showgrid="false"
     inkscape:zoom="0.19666667"
     inkscape:cx="-1033.8983"
     inkscape:cy="700.00002"
     inkscape:window-x="120"
     inkscape:window-y="30"
     inkscape:window-maximized="0"
     inkscape:current-layer="g4477"
     fit-margin-top="100"
     fit-margin-left="100"
     fit-margin-right="100"
     fit-margin-bottom="100" />
  <rect
     height="300"
     width="300"
     y="-125"
     x="-125"
     id="rect4469"
     style="fill:#000000;fill-opacity:0" />
  <g
     style="fill:#ffffff;stroke-linejoin:round"
     id="g4477"
     transform="translate(25,25)">
    <path
       style="fill:#f7eaa6;fill-opacity:1;stroke:none;stroke-width:0.89999998;stroke-linecap:butt;stroke-linejoin:round"
       inkscape:connector-curvature="0"
       id="path4471"
       d="M 0.00178,-132.3 -88.43528,-85.666497 -110.54405,132.3 h 221.0877 L 88.43488,-85.666497 Z" />
    <path
       style="fill:#000000;stroke:none;stroke-width:0.89999998;stroke-linecap:butt;stroke-linejoin:round"
       inkscape:connector-curvature="0"
       id="path4473"
       d="m 15.203679,18.555303 h 9.40797 c 3.024,15.95997 7.224002,30.24 13.27203,42.336 -7.56,1.680003 -15.28803,3.360006 -22.68,5.04 z m 37.296,-58.295971 v 11.592 h -37.296 v -11.592 z m -37.296,40.65597036 V -11.348728 h 37.296 V 0.91530236 Z M -56.196381,-22.100668 c 7.056009,-7.728003 12.43206,-15.624 16.96797,-22.84803 7.056009,6.720003 14.615999,15.79203 19.656,22.84803 z m 120.7917,44.856 c -4.200003,4.536 -10.584,10.24803 -16.632,14.78403 -2.351997,-5.879997 -4.032,-12.26403 -5.543991,-18.98397 h 29.06397 v -75.93597 H -3.4447619 v 127.008 l -5.543991,1.008 -0.504,-9.072 c -7.7280031,1.343997 -15.6240001,2.52 -23.3520301,3.863997 v -41.66397 h 22.176 V 6.7954794 h -22.176 v -12.26403 h 18.47997 V -21.428521 l 10.2480301,-12.096 c -6.2159851,-9.072 -19.4879701,-21.50397 -29.7360001,-29.90403 h -16.29603 c -5.879997,12.93597 -16.128,28.728 -31.07997,40.65597 4.032,2.688003 9.576,9.24003 12.26403,13.2720304 l 2.687994,-2.3520064 v 6.3840064 h 16.128 v 12.26403 h -23.51997 V 23.763449 h 23.51997 v 44.352 c -9.74403,1.512 -18.648,2.688003 -25.87203,3.696003 l 3.863988,17.80803 c 16.29603,-2.687994 37.63206,-6.383997 58.128028,-10.24803 l 3.360006,12.096001 c 14.7840303,-3.360007 33.43203,-7.728004 50.904,-12.096001 l -2.183994,-17.80803 c 7.223994,13.94397 16.80003,24.86403 30.40803,32.087971 2.687985,-5.207995 8.399997,-12.768031 12.76803,-16.632001 -11.25603,-5.207994 -19.82403,-13.608 -26.208,-24.36003 7.223994,-4.536 15.95997,-10.584 23.01597,-16.29603 z m -136.7523,10.75203 c 2.688003,9.24003 5.208003,21.168 5.712003,29.231999 l 13.77603,-3.864006 c -0.839997,-7.727994 -3.528,-19.656 -6.383997,-28.728 z m 52.75197,26.88003 c 2.855997,-7.223994 6.215994,-18.144 9.5760001,-28.05597 L -24.949011,28.635418 c -1.008,8.232003 -3.863997,20.49597 -6.215994,28.224 z" />
    <path
       style="fill:none;stroke:#000000;stroke-width:9;stroke-linecap:butt;stroke-linejoin:round;stroke-opacity:1"
       inkscape:connector-curvature="0"
       id="path4475"
       d="M 0.00178,-132.3 -88.43528,-85.666497 -110.54405,132.3 h 221.0877 L 88.43488,-85.666497 Z" />
  </g>
</svg>
