<?xml version="1.0" encoding="UTF-8" standalone="no"?>
<svg
   xmlns:dc="http://purl.org/dc/elements/1.1/"
   xmlns:cc="http://creativecommons.org/ns#"
   xmlns:rdf="http://www.w3.org/1999/02/22-rdf-syntax-ns#"
   xmlns:svg="http://www.w3.org/2000/svg"
   xmlns="http://www.w3.org/2000/svg"
   xmlns:sodipodi="http://sodipodi.sourceforge.net/DTD/sodipodi-0.dtd"
   xmlns:inkscape="http://www.inkscape.org/namespaces/inkscape"
   version="1.1"
   style="overflow:visible"
   viewBox="-150 -150 300 300"
   height="1200px"
   width="1200px"
   id="svg8949"
   sodipodi:docname="0HI.svg"
   inkscape:version="0.92.5 (2060ec1f9f, 2020-04-08)">
  <metadata
     id="metadata8955">
    <rdf:RDF>
      <cc:Work
         rdf:about="">
        <dc:format>image/svg+xml</dc:format>
        <dc:type
           rdf:resource="http://purl.org/dc/dcmitype/StillImage" />
        <dc:title />
      </cc:Work>
    </rdf:RDF>
  </metadata>
  <defs
     id="defs8953" />
  <sodipodi:namedview
     pagecolor="#ffffff"
     bordercolor="#666666"
     borderopacity="1"
     objecttolerance="10"
     gridtolerance="10"
     guidetolerance="10"
     inkscape:pageopacity="0"
     inkscape:pageshadow="2"
     inkscape:window-width="1037"
     inkscape:window-height="728"
     id="namedview8951"
     showgrid="false"
     inkscape:zoom="0.19666667"
     inkscape:cx="-1133.8983"
     inkscape:cy="600.00002"
     inkscape:window-x="178"
     inkscape:window-y="50"
     inkscape:window-maximized="0"
     inkscape:current-layer="g8945" />
  <rect
     fill-opacity="0"
     fill="rgb(0,0,0)"
     height="300"
     width="300"
     y="-150"
     x="-150"
     id="rect8937" />
  <g
     style="fill:#ffffff;stroke-linejoin:round"
     id="g8945">
    <path
       style="fill:#f7eaa6;fill-opacity:1;stroke:none;stroke-width:0.89999998;stroke-linecap:butt;stroke-linejoin:round"
       inkscape:connector-curvature="0"
       id="path8939"
       d="M 0.00178,-132.3 -88.43528,-85.666497 -110.54405,132.3 h 221.0877 L 88.43488,-85.666497 Z" />
    <path
       style="fill:#000000;stroke:none;stroke-width:0.89999998;stroke-linecap:butt;stroke-linejoin:round"
       inkscape:connector-curvature="0"
       id="path8941"
       d="m 59.387379,-59.901297 c -2.85597,5.04 -8.23194,12.76803 -12.43197,17.30403 l 11.76003,6.552 c 5.04,-3.863997 11.088,-9.74403 17.80794,-15.79203 z m 15.79203,35.11197 c -7.056,-5.712003 -21.33603,-14.28003 -31.752,-19.48797 l -5.37597,5.04 c -0.84006,-5.376006 -1.34406,-11.088 -1.68003,-16.80003 h -104.328 v 17.80803 h 88.03197 c 3.69603,26.37603 12.43206,48.71997 39.312,52.08003 10.41606,2.016 17.136,-3.528 19.99206,-18.3120297 -3.69603,-2.352006 -8.064,-7.0560003 -11.25603,-10.9199703 -1.008,7.3920063 -2.35197,12.2640303 -4.536,11.9279703 -12.43197,-1.008 -19.48797,-11.5920003 -23.35203,-25.7040003 8.90406,5.375997 18.31203,11.592 23.184,16.128 z m -6.88797,84.50397 c -1.008,9.576 -2.35206,15.79203 -4.536,15.45597 -11.42406,-1.008 -17.47206,-12.26403 -20.83203,-28.05597 8.73603,5.207994 17.80803,11.088 22.68,15.45597 z m 8.90397,-9.24003 c -4.20003,-3.528 -10.91997,-7.728003 -17.97597,-11.592 4.87197,-3.864006 10.91997,-9.576 17.47197,-15.45597 l -17.136,-8.064 c -2.85597,5.04 -8.23203,12.43197 -12.43197,17.136 l -3.36006,-1.679994 -2.85597,2.855997 c -1.008,-8.568 -1.34397,-17.80803 -1.512,-26.8800297 H 3.6114091 V -33.525384 H -15.876561 V 6.7946163 h -19.32003 V -17.061414 h -1.008 c 6.21603,-3.864006 11.92797,-8.064 16.46397,-12.43197 l -16.96797,-6.552 c -9.40797,7.896006 -27.04797,14.615999 -42.84,18.648 3.528,3.528 8.90397,11.4239703 11.25603,15.2880303 4.536,-1.512 9.40797,-3.528 14.112,-5.544 v 14.44797 h -22.00806 V 24.938616 h 21.672 c -1.17594,18.81603 -6.21594,38.97603 -25.2,54.936 4.536,2.855997 11.592,9.24003 14.78403,13.43997 22.84803,-19.48797 28.39203,-45.02403 29.567969,-68.37597 h 19.48806 v 66.024 H 3.6114082 v -66.024 H 21.587378 c 2.18403,34.776 8.73603,64.34397 37.63206,68.20803 11.088,2.184003 17.64,-4.199994 20.49597,-21.84003 -3.69603,-2.184003 -8.064,-7.224003 -11.25603,-11.592 z" />
    <path
       style="fill:none;stroke:#000000;stroke-width:9;stroke-linecap:butt;stroke-linejoin:round;stroke-opacity:1"
       inkscape:connector-curvature="0"
       id="path8943"
       d="M 0.00178,-132.3 -88.43528,-85.666497 -110.54405,132.3 h 221.0877 L 88.43488,-85.666497 Z" />
  </g>
</svg>
