<?xml version="1.0" encoding="UTF-8" standalone="no"?>
<svg
   xmlns:dc="http://purl.org/dc/elements/1.1/"
   xmlns:cc="http://creativecommons.org/ns#"
   xmlns:rdf="http://www.w3.org/1999/02/22-rdf-syntax-ns#"
   xmlns:svg="http://www.w3.org/2000/svg"
   xmlns="http://www.w3.org/2000/svg"
   xmlns:sodipodi="http://sodipodi.sourceforge.net/DTD/sodipodi-0.dtd"
   xmlns:inkscape="http://www.inkscape.org/namespaces/inkscape"
   version="1.1"
   style="overflow:visible"
   viewBox="-150 -150 300 300"
   height="1200px"
   width="1200px"
   id="svg10362"
   sodipodi:docname="0KA.svg"
   inkscape:version="0.92.5 (2060ec1f9f, 2020-04-08)">
  <metadata
     id="metadata10368">
    <rdf:RDF>
      <cc:Work
         rdf:about="">
        <dc:format>image/svg+xml</dc:format>
        <dc:type
           rdf:resource="http://purl.org/dc/dcmitype/StillImage" />
        <dc:title />
      </cc:Work>
    </rdf:RDF>
  </metadata>
  <defs
     id="defs10366" />
  <sodipodi:namedview
     pagecolor="#ffffff"
     bordercolor="#666666"
     borderopacity="1"
     objecttolerance="10"
     gridtolerance="10"
     guidetolerance="10"
     inkscape:pageopacity="0"
     inkscape:pageshadow="2"
     inkscape:window-width="1016"
     inkscape:window-height="776"
     id="namedview10364"
     showgrid="false"
     inkscape:zoom="0.19666667"
     inkscape:cx="-197.10676"
     inkscape:cy="600.00001"
     inkscape:window-x="112"
     inkscape:window-y="0"
     inkscape:window-maximized="0"
     inkscape:current-layer="g10358" />
  <rect
     fill-opacity="0"
     fill="rgb(0,0,0)"
     height="300"
     width="300"
     y="-150"
     x="-150"
     id="rect10350" />
  <g
     style="fill:#ffffff;stroke-linejoin:round"
     id="g10358">
    <path
       style="fill:#eedf85;stroke:none;stroke-linecap:butt;stroke-linejoin:round;fill-opacity:1"
       inkscape:connector-curvature="0"
       id="path10352"
       d="M 0.002,-147 -98.2614,-95.185 -122.8267,147 h 245.653 L 98.261,-95.185 Z" />
    <path
       style="fill:#000000;stroke:none;stroke-linecap:butt;stroke-linejoin:round;"
       inkscape:connector-curvature="0"
       id="path10354"
       d="m 23.706,44.509999 v -17.7333 h 34.3467 v 17.7333 z M 2.6127,26.776699 v 17.7333 h -33.6 c 0.93334,-5.97333 1.30667,-11.9467 1.49334,-17.7333 z m 14.56,-69.0667 c -2.61333,4.66667 -5.78666,9.70667 -8.77333,14 h -38.4533 c 3.92,-4.48 7.46666,-9.33333 10.8267,-14 z m -46.48,33.4133 h 31.92 v 16.9867 h -31.92 z m 87.36,16.9867 H 23.706 v -16.9867 h 34.3467 z m 22.0267,-36.4 H 32.6661 c 5.6,-7.65333 11.0133,-15.8667 15.12,-23.1467 l -15.12,-9.89334 -3.54667,0.93334 h -36.96 c 1.30667,-2.24 2.61333,-4.66667 3.73333,-6.90667 l -23.7067,-4.106672 c -8.77334,18.2933 -24.8267,39.5733 -48.5333,55.6267 4.85333,3.17333 12.32,11.0133 15.68,16.239999 3.36,-2.61333 6.72,-5.22667 9.89333,-8.02667 v 27.8133 c 0,22.5867 -2.61333,50.0267 -29.3067,68.88 4.48,2.98667 12.6933,11.200004 15.68,15.493304 15.3067,-10.826704 24.2667,-25.573304 29.12,-41.066704 h 93.3333 v 14.7467 c 0,3.54667 -1.49333,4.66667 -5.41333,4.85334 -4.106672,0 -19.4133,0.18666 -32.48,-0.56 3.17333,5.78666 7.28,15.3067 8.4,21.466704 18.48,0 31.36,-0.37333 39.9467,-3.73333 8.58666,-3.546674 11.5733,-9.520004 11.5733,-21.653304 z" />
    <path
       style="fill:none;stroke:#000000;stroke-width:10;stroke-linecap:butt;stroke-linejoin:round;stroke-opacity:1"
       inkscape:connector-curvature="0"
       id="path10356"
       d="M 0.002,-147 -98.2614,-95.185 -122.8267,147 h 245.653 L 98.261,-95.185 Z" />
  </g>
</svg>
