<?xml version="1.0" encoding="UTF-8" standalone="no"?>
<svg
   xmlns:dc="http://purl.org/dc/elements/1.1/"
   xmlns:cc="http://creativecommons.org/ns#"
   xmlns:rdf="http://www.w3.org/1999/02/22-rdf-syntax-ns#"
   xmlns:svg="http://www.w3.org/2000/svg"
   xmlns="http://www.w3.org/2000/svg"
   xmlns:sodipodi="http://sodipodi.sourceforge.net/DTD/sodipodi-0.dtd"
   xmlns:inkscape="http://www.inkscape.org/namespaces/inkscape"
   version="1.1"
   style="overflow:visible"
   viewBox="-150 -150 300 300"
   height="1200px"
   width="1200px"
   id="svg6005"
   sodipodi:docname="0KE.svg"
   inkscape:version="0.92.5 (2060ec1f9f, 2020-04-08)">
  <metadata
     id="metadata6011">
    <rdf:RDF>
      <cc:Work
         rdf:about="">
        <dc:format>image/svg+xml</dc:format>
        <dc:type
           rdf:resource="http://purl.org/dc/dcmitype/StillImage" />
        <dc:title />
      </cc:Work>
    </rdf:RDF>
  </metadata>
  <defs
     id="defs6009" />
  <sodipodi:namedview
     pagecolor="#ffffff"
     bordercolor="#666666"
     borderopacity="1"
     objecttolerance="10"
     gridtolerance="10"
     guidetolerance="10"
     inkscape:pageopacity="0"
     inkscape:pageshadow="2"
     inkscape:window-width="1042"
     inkscape:window-height="780"
     id="namedview6007"
     showgrid="false"
     inkscape:zoom="0.19666667"
     inkscape:cx="-244.06779"
     inkscape:cy="600.00001"
     inkscape:window-x="198"
     inkscape:window-y="19"
     inkscape:window-maximized="0"
     inkscape:current-layer="g6001" />
  <rect
     fill-opacity="0"
     fill="rgb(0,0,0)"
     height="300"
     width="300"
     y="-150"
     x="-150"
     id="rect5993" />
  <g
     style="fill:#ffffff;stroke-linejoin:round"
     id="g6001">
    <path
       style="fill:#eedf85;stroke:none;stroke-linecap:butt;stroke-linejoin:round;fill-opacity:1"
       inkscape:connector-curvature="0"
       id="path5995"
       d="M 0.002,-147 -98.2614,-95.185 -122.8267,147 h 245.653 L 98.261,-95.185 Z" />
    <path
       style="fill:#000000;stroke:none;stroke-linecap:butt;stroke-linejoin:round"
       inkscape:connector-curvature="0"
       id="path5997"
       d="m 86.613,-9.437001 h -42 v -19.04 h 34.3467 v -20.16 H 44.613 v -21.0933 h -22.96 v 21.0933 h -34.72 v 20.16 h 34.72 v 19.04 h -40.32 v 20.5333 h 105.28 z m -105.653,33.2267 c -2.9867,-5.04 -16.4267,-26.1333 -21.6533,-33.2267 v -5.97334 h 20.3466 v -20.72 h -20.3466 v -34.72 h -20.16 v 34.9067 h -22.2134 v 20.5333 H -62.16 c -5.4133,22.4 -15.3067,48.72 -26.6933,63.0933 3.5466,5.97333 8.4,16.239999 10.4533,22.4 6.5333,-9.52 12.5067,-23.52 17.5467,-38.64 v 72.240001 h 20.16 V 18.749659 c 3.5466,7.28 6.9066,14.9333 8.7733,20.16 z m 63.6533,52.64 v -22.0267 h 36.96 v -20.3467 h -36.96 v -17.36 h -22.96 v 17.36 h -36.96 v 20.3467 h 36.96 v 22.0267 H -27.44 v 21.0933 H 88.853 v -21.0933 z" />
    <path
       style="fill:none;stroke:#000000;stroke-width:10;stroke-linecap:butt;stroke-linejoin:round;stroke-opacity:1"
       inkscape:connector-curvature="0"
       id="path5999"
       d="M 0.002,-147 -98.2614,-95.185 -122.8267,147 h 245.653 L 98.261,-95.185 Z" />
  </g>
</svg>
