<?xml version="1.0" encoding="UTF-8" standalone="no"?>
<svg
   xmlns:dc="http://purl.org/dc/elements/1.1/"
   xmlns:cc="http://creativecommons.org/ns#"
   xmlns:rdf="http://www.w3.org/1999/02/22-rdf-syntax-ns#"
   xmlns:svg="http://www.w3.org/2000/svg"
   xmlns="http://www.w3.org/2000/svg"
   xmlns:sodipodi="http://sodipodi.sourceforge.net/DTD/sodipodi-0.dtd"
   xmlns:inkscape="http://www.inkscape.org/namespaces/inkscape"
   version="1.1"
   style="overflow:visible"
   viewBox="-150 -150 300 300"
   height="1200px"
   width="1200px"
   id="svg6005"
   sodipodi:docname="0KE.svg"
   inkscape:version="0.92.5 (2060ec1f9f, 2020-04-08)">
  <metadata
     id="metadata6011">
    <rdf:RDF>
      <cc:Work
         rdf:about="">
        <dc:format>image/svg+xml</dc:format>
        <dc:type
           rdf:resource="http://purl.org/dc/dcmitype/StillImage" />
        <dc:title />
      </cc:Work>
    </rdf:RDF>
  </metadata>
  <defs
     id="defs6009" />
  <sodipodi:namedview
     pagecolor="#ffffff"
     bordercolor="#666666"
     borderopacity="1"
     objecttolerance="10"
     gridtolerance="10"
     guidetolerance="10"
     inkscape:pageopacity="0"
     inkscape:pageshadow="2"
     inkscape:window-width="1310"
     inkscape:window-height="759"
     id="namedview6007"
     showgrid="false"
     inkscape:zoom="0.46166667"
     inkscape:cx="571.84116"
     inkscape:cy="600"
     inkscape:window-x="106"
     inkscape:window-y="22"
     inkscape:window-maximized="0"
     inkscape:current-layer="g6001"
     showguides="true" />
  <rect
     fill-opacity="0"
     fill="rgb(0,0,0)"
     height="300"
     width="300"
     y="-150"
     x="-150"
     id="rect5993" />
  <g
     style="fill:#ffffff;stroke-linejoin:round"
     id="g6001">
    <path
       style="fill:#f7eaa6;fill-opacity:1;stroke:none;stroke-width:0.89999998;stroke-linecap:butt;stroke-linejoin:round"
       inkscape:connector-curvature="0"
       id="path5995"
       d="M 0.00178,-132.3 -88.43528,-85.666497 -110.54405,132.3 h 221.0877 L 88.43488,-85.666497 Z" />
    <path
       style="fill:#000000;stroke:none;stroke-width:3.7444942;stroke-linecap:butt;stroke-linejoin:round"
       d="m 677.95117,348.9707 v 82.1543 l -120.66006,-2.16606 2.16606,82.85165 118.494,-2.16606 v 74.15625 H 532.79883 v 79.97266 h 145.15234 v 64.87695 l -130.88863,-2.16606 0,78.16988 130.88863,4.33212 v 86.9707 H 522.87745 v 81.1191 l 396.99364,2.16606 V 895.95703 H 760.60742 v -86.9707 H 893.66406 V 728.65039 H 760.60742 V 663.77344 H 911.80664 V 583.80078 H 760.60742 V 509.64453 H 884.25391 V 431.125 H 760.60742 v -82.1543 z"
       transform="matrix(0.25,0,0,0.25,-150,-150)"
       id="path1500"
       inkscape:connector-curvature="0"
       sodipodi:nodetypes="ccccccccccccccccccccccccccccccccc" />
    <path
       style="fill:#000000;stroke:none;stroke-width:0.89999998;stroke-linecap:butt;stroke-linejoin:round"
       d="m -17.13602,21.410732 c -2.68803,-4.536 -14.78403,-23.5199696 -19.48797,-29.9040296 v -5.3760064 h 18.31194 v -18.648 h -18.31194 v -31.248 h -18.144 v 31.41603 h -19.99206 v 18.47997 h 18.81603 c -4.87197,20.1600004 -13.77603,43.848 -24.02397,56.78397 3.19194,5.375997 7.56,14.615999 9.40797,20.16 5.87997,-8.568 11.25603,-21.168 15.79203,-34.776 v 65.016001 h 18.144 V 16.874696 c 3.19194,6.552 6.21594,13.43997 7.89597,18.144 z"
       id="path1498"
       inkscape:connector-curvature="0" />
    <path
       style="fill:none;stroke:#000000;stroke-width:9;stroke-linecap:butt;stroke-linejoin:round;stroke-opacity:1"
       inkscape:connector-curvature="0"
       id="path5999"
       d="M 0.00178,-132.3 -88.43528,-85.666497 -110.54405,132.3 h 221.0877 L 88.43488,-85.666497 Z" />
  </g>
</svg>
