<?xml version="1.0" encoding="UTF-8" standalone="no"?>
<svg
   xmlns:dc="http://purl.org/dc/elements/1.1/"
   xmlns:cc="http://creativecommons.org/ns#"
   xmlns:rdf="http://www.w3.org/1999/02/22-rdf-syntax-ns#"
   xmlns:svg="http://www.w3.org/2000/svg"
   xmlns="http://www.w3.org/2000/svg"
   xmlns:sodipodi="http://sodipodi.sourceforge.net/DTD/sodipodi-0.dtd"
   xmlns:inkscape="http://www.inkscape.org/namespaces/inkscape"
   version="1.1"
   style="overflow:visible"
   viewBox="-150 -150 300 300"
   height="1200px"
   width="1200px"
   id="svg7487"
   sodipodi:docname="0KY.svg"
   inkscape:version="0.92.5 (2060ec1f9f, 2020-04-08)">
  <metadata
     id="metadata7493">
    <rdf:RDF>
      <cc:Work
         rdf:about="">
        <dc:format>image/svg+xml</dc:format>
        <dc:type
           rdf:resource="http://purl.org/dc/dcmitype/StillImage" />
        <dc:title />
      </cc:Work>
    </rdf:RDF>
  </metadata>
  <defs
     id="defs7491" />
  <sodipodi:namedview
     pagecolor="#ffffff"
     bordercolor="#666666"
     borderopacity="1"
     objecttolerance="10"
     gridtolerance="10"
     guidetolerance="10"
     inkscape:pageopacity="0"
     inkscape:pageshadow="2"
     inkscape:window-width="930"
     inkscape:window-height="617"
     id="namedview7489"
     showgrid="false"
     inkscape:zoom="0.19666667"
     inkscape:cx="1074.3722"
     inkscape:cy="600.00001"
     inkscape:window-x="158"
     inkscape:window-y="33"
     inkscape:window-maximized="0"
     inkscape:current-layer="g7483" />
  <rect
     fill-opacity="0"
     fill="rgb(0,0,0)"
     height="300"
     width="300"
     y="-150"
     x="-150"
     id="rect7475" />
  <g
     style="fill:#ffffff;stroke-linejoin:round"
     id="g7483">
    <path
       style="fill:#eedf85;stroke:none;stroke-linecap:butt;stroke-linejoin:round;fill-opacity:1"
       inkscape:connector-curvature="0"
       id="path7477"
       d="M 0.002,-147 -98.2614,-95.185 -122.8267,147 h 245.653 L 98.261,-95.185 Z" />
    <path
       style="fill:#000000;stroke:none;stroke-linecap:butt;stroke-linejoin:round"
       inkscape:connector-curvature="0"
       id="path7479"
       d="m -50.214,28.829999 c 14.3734,-8.77333 27.6267,-19.7867 38.2667,-32.1067 v 27.8133 h 23.1467 v -27.6267 c 11.9466,12.32 26.32,23.3333 41.44,31.92 z m 15.68,52.2667 v -10.2667 h 70.3734 v 10.2667 z m 70.3734,-25.3867 H -34.534 v -10.08 H 35.8394 Z M 83.0661,-8.503302 v -19.7867 H 11.1994 v -15.3067 c 18.6666,-2.24 36.5866,-5.04 52.08,-8.96 l -15.68,-17.7333 c -28,6.90667 -74.48,11.3867 -115.36,12.88 2.24,5.04 4.8533,13.44 5.4133,18.8533 16.4267,-0.37334 33.4133,-1.30667 50.4,-2.8 v 13.0667 h -71.4933 v 19.7867 h 50.5866 c -15.12,13.2533 -35.4666,24.8267 -55.8133,30.9867 4.6667,4.48 11.0133,12.88 14.3733,18.1067 5.9734,-2.24 11.76,-4.85333 17.5467,-8.02666 v 71.120002 h 22.2133 v -5.786672 h 70.3734 v 5.600002 H 59.1727 V 32.376768 c 5.2267,2.61333 10.08,4.85333 15.3067,6.72 3.1733,-5.22667 9.52,-13.44 14.1867,-17.7333 -19.9734,-6.16 -40.6934,-17.36 -56.3734,-29.8667 z" />
    <path
       style="fill:none;stroke:#000000;stroke-width:10;stroke-linecap:butt;stroke-linejoin:round;stroke-opacity:1"
       inkscape:connector-curvature="0"
       id="path7481"
       d="M 0.002,-147 -98.2614,-95.185 -122.8267,147 h 245.653 L 98.261,-95.185 Z" />
  </g>
</svg>
