<?xml version="1.0" encoding="UTF-8" standalone="no"?>
<svg
   xmlns:dc="http://purl.org/dc/elements/1.1/"
   xmlns:cc="http://creativecommons.org/ns#"
   xmlns:rdf="http://www.w3.org/1999/02/22-rdf-syntax-ns#"
   xmlns:svg="http://www.w3.org/2000/svg"
   xmlns="http://www.w3.org/2000/svg"
   xmlns:sodipodi="http://sodipodi.sourceforge.net/DTD/sodipodi-0.dtd"
   xmlns:inkscape="http://www.inkscape.org/namespaces/inkscape"
   version="1.1"
   style="overflow:visible"
   viewBox="-150 -150 300 300"
   height="1200px"
   width="1200px"
   id="svg5237"
   sodipodi:docname="0NG.svg"
   enable-background="new"
   inkscape:version="0.92.5 (2060ec1f9f, 2020-04-08)">
  <metadata
     id="metadata5243">
    <rdf:RDF>
      <cc:Work
         rdf:about="">
        <dc:format>image/svg+xml</dc:format>
        <dc:type
           rdf:resource="http://purl.org/dc/dcmitype/StillImage" />
        <dc:title />
      </cc:Work>
    </rdf:RDF>
  </metadata>
  <defs
     id="defs5241" />
  <sodipodi:namedview
     pagecolor="#ffffff"
     bordercolor="#666666"
     borderopacity="1"
     objecttolerance="10"
     gridtolerance="10"
     guidetolerance="10"
     inkscape:pageopacity="0"
     inkscape:pageshadow="2"
     inkscape:window-width="949"
     inkscape:window-height="699"
     id="namedview5239"
     showgrid="false"
     inkscape:zoom="0.19666667"
     inkscape:cx="-244.06779"
     inkscape:cy="600.00001"
     inkscape:window-x="151"
     inkscape:window-y="51"
     inkscape:window-maximized="0"
     inkscape:current-layer="g5233" />
  <rect
     fill-opacity="0"
     fill="rgb(0,0,0)"
     height="300"
     width="300"
     y="-150"
     x="-150"
     id="rect5225" />
  <g
     style="fill:#ffffff;stroke-linejoin:round"
     id="g5233">
    <path
       style="fill:#f7eaa6;stroke:none;stroke-linecap:butt;stroke-linejoin:round;fill-opacity:1"
       inkscape:connector-curvature="0"
       id="path5227"
       d="M 0.002,-147 -98.2614,-95.185 -122.8267,147 h 245.653 L 98.261,-95.185 Z" />
    <path
       style="fill:#aa0000;stroke:none;stroke-linecap:butt;stroke-linejoin:round"
       inkscape:connector-curvature="0"
       id="path5229"
       d="m -47.694,-3.463 c 19.4133,-14.3733 36.0267,-31.1733 46.6667,-46.2933 10.8267,15.12 28.7467,32.106699 48.16,46.2933 z m 58.4267,60.48 H 62.9994 V 37.6037 H 10.7327 V 16.137 h 43.68 V 1.577 c 6.72,4.66667 13.44,8.77333 20.16,12.5067 4.10667,-6.90667 8.96,-14 14.7467,-19.9733 -29.4933,-12.5067 -59.92,-36.96 -79.8933,-65.3333 h -22.96 c -13.8133,22.7733 -43.8667,51.52 -75.7867,67.5733 5.04,4.66667 11.2,12.6933 14,17.92 7.09333,-3.92 14,-8.21333 20.72,-12.88 v 14.7467 h 42.1867 v 21.4667 h -51.7067 v 19.4133 h 51.7067 v 22.2133 h -66.64 V 99.2037 H 79.7991 V 79.2304 H 10.7324 Z" />
    <path
       style="fill:none;stroke:#000000;stroke-width:10;stroke-linecap:butt;stroke-linejoin:round;stroke-opacity:1"
       inkscape:connector-curvature="0"
       id="path5231"
       d="M 0.002,-147 -98.2614,-95.185 -122.8267,147 h 245.653 L 98.261,-95.185 Z" />
  </g>
</svg>
