<?xml version="1.0" encoding="UTF-8" standalone="no"?>
<svg
   xmlns:dc="http://purl.org/dc/elements/1.1/"
   xmlns:cc="http://creativecommons.org/ns#"
   xmlns:rdf="http://www.w3.org/1999/02/22-rdf-syntax-ns#"
   xmlns:svg="http://www.w3.org/2000/svg"
   xmlns="http://www.w3.org/2000/svg"
   xmlns:sodipodi="http://sodipodi.sourceforge.net/DTD/sodipodi-0.dtd"
   xmlns:inkscape="http://www.inkscape.org/namespaces/inkscape"
   version="1.1"
   style="overflow:visible"
   viewBox="-150 -150 300 300"
   height="1200px"
   width="1200px"
   id="svg8238"
   sodipodi:docname="0NY.svg"
   inkscape:version="0.92.5 (2060ec1f9f, 2020-04-08)">
  <metadata
     id="metadata8244">
    <rdf:RDF>
      <cc:Work
         rdf:about="">
        <dc:format>image/svg+xml</dc:format>
        <dc:type
           rdf:resource="http://purl.org/dc/dcmitype/StillImage" />
        <dc:title />
      </cc:Work>
    </rdf:RDF>
  </metadata>
  <defs
     id="defs8242" />
  <sodipodi:namedview
     pagecolor="#ffffff"
     bordercolor="#666666"
     borderopacity="1"
     objecttolerance="10"
     gridtolerance="10"
     guidetolerance="10"
     inkscape:pageopacity="0"
     inkscape:pageshadow="2"
     inkscape:window-width="696"
     inkscape:window-height="480"
     id="namedview8240"
     showgrid="false"
     inkscape:zoom="0.19666667"
     inkscape:cx="-244.06779"
     inkscape:cy="600.00001"
     inkscape:window-x="217"
     inkscape:window-y="118"
     inkscape:window-maximized="0"
     inkscape:current-layer="g8234" />
  <rect
     height="300"
     width="300"
     y="-150"
     x="-150"
     id="rect8226"
     style="fill:#000000;fill-opacity:0" />
  <g
     style="fill:#ffffff;stroke-linejoin:round"
     id="g8234">
    <path
       style="fill:#f7eaa6;stroke:none;stroke-linecap:butt;stroke-linejoin:round;fill-opacity:1"
       inkscape:connector-curvature="0"
       id="path8228"
       d="M 0.002,-147 -98.2614,-95.185 -122.8267,147 h 245.653 L 98.261,-95.185 Z" />
    <path
       style="fill:#b10000;fill-opacity:1;stroke:none;stroke-linecap:butt;stroke-linejoin:round"
       inkscape:connector-curvature="0"
       id="path8230"
       d="m 36.305999,51.23 v 25.76 h -72.6133 V 51.23 Z m -94.4533,52.8267 h 21.84 v -6.53333 h 72.6133 v 5.22667 h 22.96 v -72.0533 h -117.413 z m 141.867,-130.107 v -20.5333 h -72.24 v -24.2667 h -22.96 v 24.2667 h -71.3067 v 20.5333 h 51.8933 c -14.3733,16.8 -35.4666,31.1733 -57.12,39.2 4.6667,4.29334 11.3867,12.6933 14.7467,18.1067 23.7067,-10.2667 45.92,-28 61.7867,-48.9067 v 43.8667 h 22.96 v -43.12 c 16.0533,20.16 37.7066,37.52 61.4133,47.04 3.5467,-5.97333 10.2667,-14.3733 15.12,-18.8533 -22.2133,-7.46667 -43.68,-21.28 -58.4267,-37.3333 z" />
    <path
       style="fill:none;stroke:#000000;stroke-width:10;stroke-linecap:butt;stroke-linejoin:round;stroke-opacity:1"
       inkscape:connector-curvature="0"
       id="path8232"
       d="M 0.002,-147 -98.2614,-95.185 -122.8267,147 h 245.653 L 98.261,-95.185 Z" />
  </g>
</svg>
