<?xml version="1.0" encoding="UTF-8" standalone="no"?>
<svg
   xmlns:dc="http://purl.org/dc/elements/1.1/"
   xmlns:cc="http://creativecommons.org/ns#"
   xmlns:rdf="http://www.w3.org/1999/02/22-rdf-syntax-ns#"
   xmlns:svg="http://www.w3.org/2000/svg"
   xmlns="http://www.w3.org/2000/svg"
   xmlns:sodipodi="http://sodipodi.sourceforge.net/DTD/sodipodi-0.dtd"
   xmlns:inkscape="http://www.inkscape.org/namespaces/inkscape"
   viewBox="0 0 26.458 26.458"
   version="1.1"
   id="svg3799"
   sodipodi:docname="0OU.svg"
   inkscape:version="0.92.5 (2060ec1f9f, 2020-04-08)">
  <metadata
     id="metadata3805">
    <rdf:RDF>
      <cc:Work
         rdf:about="">
        <dc:format>image/svg+xml</dc:format>
        <dc:type
           rdf:resource="http://purl.org/dc/dcmitype/StillImage" />
        <dc:title></dc:title>
      </cc:Work>
    </rdf:RDF>
  </metadata>
  <defs
     id="defs3803" />
  <sodipodi:namedview
     pagecolor="#ffffff"
     bordercolor="#666666"
     borderopacity="1"
     objecttolerance="10"
     gridtolerance="10"
     guidetolerance="10"
     inkscape:pageopacity="0"
     inkscape:pageshadow="2"
     inkscape:window-width="1286"
     inkscape:window-height="799"
     id="namedview3801"
     showgrid="false"
     inkscape:zoom="22.299493"
     inkscape:cx="13.229"
     inkscape:cy="13.229"
     inkscape:window-x="64"
     inkscape:window-y="0"
     inkscape:window-maximized="0"
     inkscape:current-layer="svg3799" />
  <g
     id="g3797"
     transform="rotate(-180,13.22864,13.229398)"
     style="stroke-width:1.26400006">
    <path
       transform="matrix(0.7464,0,0,0.74725,2.891,1.639)"
       d="M 23.855,27.358 13.85,31 3.845,27.358 0,0 h 27.7 z"
       id="path3793"
       inkscape:connector-curvature="0"
       style="fill:#fff7b7;stroke:#000000;stroke-width:0.66900003" />
    <path
       d="m 20.436,5.232 c 0.367,0.247 0.647,0.597 0.647,0.81 0,0.343 -0.182,0.382 -2.283,0.488 -1.256,0.063 -2.786,0.182 -3.4,0.263 L 14.28,6.94 14.4,8.086 c 0.066,0.63 0.12,1.658 0.12,2.285 v 1.139 l 1.128,-0.128 c 1.249,-0.141 2.486,0.218 2.486,0.723 0,0.35 -0.396,0.468 -1.61,0.478 -0.52,0.005 -1.183,0.06 -1.474,0.125 l -0.53,0.116 v 1.67 c 0,0.92 0.094,1.94 0.209,2.27 0.198,0.568 0.26,0.6 1.189,0.6 1.097,0 2.278,0.494 2.37,0.99 0.054,0.287 -0.15,0.323 -1.806,0.314 a 14.716,14.716 0 0 0 -5.18,0.878 c -1.262,0.45 -2.869,0.081 -2.869,-0.658 0,-0.202 0.15,-0.448 0.333,-0.545 0.264,-0.141 3.236,-0.595 3.91,-0.597 0.085,0 0.021,-0.19 -0.14,-0.422 -0.241,-0.343 -0.273,-0.768 -0.172,-2.307 0.118,-1.797 0.107,-1.882 -0.24,-1.777 -1.843,0.562 -3.546,0.382 -3.655,-0.386 -0.082,-0.58 0.354,-0.753 2.294,-0.911 l 1.665,-0.136 V 7.154 l -1.38,0.17 C 8.484,7.639 7.275,7.586 6.391,7.12 5.604,6.705 5.201,6.018 5.478,5.568 c 0.174,-0.282 1.085,-0.25 2.86,0.097 2.053,0.403 6.756,0.096 9.117,-0.595 1.346,-0.394 2.23,-0.346 2.981,0.162 z"
       id="path3795"
       inkscape:connector-curvature="0" />
  </g>
</svg>
