<?xml version="1.0" encoding="UTF-8" standalone="no"?>
<svg
   xmlns:dc="http://purl.org/dc/elements/1.1/"
   xmlns:cc="http://creativecommons.org/ns#"
   xmlns:rdf="http://www.w3.org/1999/02/22-rdf-syntax-ns#"
   xmlns:svg="http://www.w3.org/2000/svg"
   xmlns="http://www.w3.org/2000/svg"
   xmlns:sodipodi="http://sodipodi.sourceforge.net/DTD/sodipodi-0.dtd"
   xmlns:inkscape="http://www.inkscape.org/namespaces/inkscape"
   version="1.1"
   style="overflow:visible"
   viewBox="-150 -150 300 300"
   height="1200px"
   width="1200px"
   id="svg12444"
   sodipodi:docname="0TO.svg"
   inkscape:version="0.92.5 (2060ec1f9f, 2020-04-08)">
  <metadata
     id="metadata12450">
    <rdf:RDF>
      <cc:Work
         rdf:about="">
        <dc:format>image/svg+xml</dc:format>
        <dc:type
           rdf:resource="http://purl.org/dc/dcmitype/StillImage" />
        <dc:title />
      </cc:Work>
    </rdf:RDF>
  </metadata>
  <defs
     id="defs12448" />
  <sodipodi:namedview
     pagecolor="#ffffff"
     bordercolor="#666666"
     borderopacity="1"
     objecttolerance="10"
     gridtolerance="10"
     guidetolerance="10"
     inkscape:pageopacity="0"
     inkscape:pageshadow="2"
     inkscape:window-width="696"
     inkscape:window-height="480"
     id="namedview12446"
     showgrid="false"
     inkscape:zoom="0.19666667"
     inkscape:cx="-244.06779"
     inkscape:cy="600.00001"
     inkscape:window-x="181"
     inkscape:window-y="57"
     inkscape:window-maximized="0"
     inkscape:current-layer="g12440" />
  <rect
     fill-opacity="0"
     fill="rgb(0,0,0)"
     height="300"
     width="300"
     y="-150"
     x="-150"
     id="rect12432" />
  <g
     style="fill:#ffffff;stroke-linejoin:round"
     id="g12440">
    <path
       style="fill:#eedf85;stroke:none;stroke-linecap:butt;stroke-linejoin:round;fill-opacity:1"
       inkscape:connector-curvature="0"
       id="path12434"
       d="M 0.002,-147 -98.2614,-95.185 -122.8267,147 h 245.653 L 98.261,-95.185 Z" />
    <path
       style="fill:#b10000;fill-opacity:1;stroke:none;stroke-linecap:butt;stroke-linejoin:round"
       inkscape:connector-curvature="0"
       id="path12436"
       d="m 45.92,-42.663001 c -4.66667,3.92 -10.08,7.09333 -16.9867,11.2 -8.77333,4.85333 -24.8267,13.0667 -39.9467,21.84 -7.46666,-14.1867 -16.0533,-31.92 -23.1467,-51.1467 l -23.3333,9.52 c 8.4,19.6 17.36,39.2 25.9467,55.0667 -17.7333,13.0667 -30.6133,28.1867 -30.6133,48.72 0,31.7333 27.8133,42 64.586698,42 24.08,0 43.68,-1.86666 59.36,-4.48 l 0.37333,-26.6933 c -16.4267,3.73333 -41.44,6.72 -60.48,6.72 -25.5733,0 -38.4533,-7.09333 -38.4533,-20.3467 0,-12.88 10.2667,-23.52 25.76,-33.6 16.8,-10.8267 39.9467,-21.6533 51.52,-27.44 6.72,-3.36 12.6933,-6.53333 18.2933,-9.89333 z" />
    <path
       style="fill:none;stroke:#000000;stroke-width:10;stroke-linecap:butt;stroke-linejoin:round;stroke-opacity:1"
       inkscape:connector-curvature="0"
       id="path12438"
       d="M 0.002,-147 -98.2614,-95.185 -122.8267,147 h 245.653 L 98.261,-95.185 Z" />
  </g>
</svg>
