<?xml version="1.0" encoding="UTF-8" standalone="no"?>
<svg
   xmlns:dc="http://purl.org/dc/elements/1.1/"
   xmlns:cc="http://creativecommons.org/ns#"
   xmlns:rdf="http://www.w3.org/1999/02/22-rdf-syntax-ns#"
   xmlns:svg="http://www.w3.org/2000/svg"
   xmlns="http://www.w3.org/2000/svg"
   xmlns:sodipodi="http://sodipodi.sourceforge.net/DTD/sodipodi-0.dtd"
   xmlns:inkscape="http://www.inkscape.org/namespaces/inkscape"
   version="1.1"
   style="overflow:visible"
   viewBox="-150 -150 300 300"
   height="1200px"
   width="1200px"
   id="svg11062"
   sodipodi:docname="0UM.svg"
   inkscape:version="0.92.5 (2060ec1f9f, 2020-04-08)">
  <metadata
     id="metadata11068">
    <rdf:RDF>
      <cc:Work
         rdf:about="">
        <dc:format>image/svg+xml</dc:format>
        <dc:type
           rdf:resource="http://purl.org/dc/dcmitype/StillImage" />
        <dc:title />
      </cc:Work>
    </rdf:RDF>
  </metadata>
  <defs
     id="defs11066" />
  <sodipodi:namedview
     pagecolor="#ffffff"
     bordercolor="#666666"
     borderopacity="1"
     objecttolerance="10"
     gridtolerance="10"
     guidetolerance="10"
     inkscape:pageopacity="0"
     inkscape:pageshadow="2"
     inkscape:window-width="696"
     inkscape:window-height="480"
     id="namedview11064"
     showgrid="false"
     inkscape:zoom="0.19666667"
     inkscape:cx="-244.06779"
     inkscape:cy="600.00001"
     inkscape:window-x="213"
     inkscape:window-y="87"
     inkscape:window-maximized="0"
     inkscape:current-layer="g11058" />
  <rect
     fill-opacity="0"
     fill="rgb(0,0,0)"
     height="300"
     width="300"
     y="-150"
     x="-150"
     id="rect11050" />
  <g
     style="fill:#ffffff;stroke-linejoin:round"
     id="g11058">
    <path
       style="fill:#eedf85;stroke:none;stroke-linecap:butt;stroke-linejoin:round;fill-opacity:1"
       inkscape:connector-curvature="0"
       id="path11052"
       d="M 0.002,-147 -98.2614,-95.185 -122.8267,147 h 245.653 L 98.261,-95.185 Z" />
    <path
       style="fill:#b10000;fill-opacity:1;stroke:none;stroke-linecap:butt;stroke-linejoin:round"
       inkscape:connector-curvature="0"
       id="path11054"
       d="m -67.947,102.377 c 12.5066,-11.2 17.92,-29.4933 21.4666,-47.7867 l -19.6,-5.41334 c -2.8,16.4267 -9.1466,32.106699 -19.7866,42 z m 28.3733,-44.6133 c 3.36,12.1333 5.9733,28.1867 6.16,38.64 l 19.7867,-3.36 c -0.56,-10.4533 -3.36,-26.1333 -7.28,-38.2667 z m 32.106699,-0.56 c 4.6666,11.0133 8.96,25.5733 10.08,34.5333 l 18.2933,-4.85333 c -1.4933,-9.14667 -6.3467,-23.3333 -11.2,-33.9733 z m -32.2934,-43.68 h 33.7867 v 11.76 h -33.7867 z m 33.7867,-57.8667 v 11.5733 h -33.7867 V -44.343 Z m 0,40.6933 h -33.7867 V -15.223 h 33.7867 z m 22.0267,28.9333 v -11.76 h 49.6533 V -3.6497 h -49.6533 V -15.223 h 49.6533 v -17.5467 h -49.6533 V -44.343 h 56.1866 v -19.04 h -133.84 V 44.51 h 124.133 c -1.68,24.08 -3.7334,33.9733 -6.3467,37.1467 -1.68,1.86667 -3.36,2.05334 -6.3467,2.05334 -3.1733,0.18666 -10.08,0 -17.5466,-0.74667 3.36,5.78667 5.7866,14.1867 6.16,20.5333 9.1466,0.37334 17.5466,0.18667 22.7733,-0.56 5.7867,-0.74666 9.8933,-2.42666 14,-7.09333 5.4133,-6.16 7.84,-22.7733 10.2667,-61.7867 0.1866,-2.98667 0.3733,-8.77333 0.3733,-8.77333 z m 36.2133,49.28 c -2.4267,-7.28 -8.4,-17.92 -14,-25.9467 l -16.0533,5.41334 c 5.4133,8.213329 10.8266,19.6 12.88,26.6933 z" />
    <path
       style="fill:none;stroke:#000000;stroke-width:10;stroke-linecap:butt;stroke-linejoin:round;stroke-opacity:1"
       inkscape:connector-curvature="0"
       id="path11056"
       d="M 0.002,-147 -98.2614,-95.185 -122.8267,147 h 245.653 L 98.261,-95.185 Z" />
  </g>
</svg>
