<?xml version="1.0" encoding="UTF-8" standalone="no"?>
<svg
   xmlns:dc="http://purl.org/dc/elements/1.1/"
   xmlns:cc="http://creativecommons.org/ns#"
   xmlns:rdf="http://www.w3.org/1999/02/22-rdf-syntax-ns#"
   xmlns:svg="http://www.w3.org/2000/svg"
   xmlns="http://www.w3.org/2000/svg"
   xmlns:sodipodi="http://sodipodi.sourceforge.net/DTD/sodipodi-0.dtd"
   xmlns:inkscape="http://www.inkscape.org/namespaces/inkscape"
   version="1.1"
   style="overflow:visible"
   viewBox="-150 -150 300 300"
   height="1200px"
   width="1200px"
   id="svg11753"
   sodipodi:docname="1FU.svg"
   inkscape:version="0.92.5 (2060ec1f9f, 2020-04-08)">
  <metadata
     id="metadata11759">
    <rdf:RDF>
      <cc:Work
         rdf:about="">
        <dc:format>image/svg+xml</dc:format>
        <dc:type
           rdf:resource="http://purl.org/dc/dcmitype/StillImage" />
        <dc:title></dc:title>
      </cc:Work>
    </rdf:RDF>
  </metadata>
  <defs
     id="defs11757" />
  <sodipodi:namedview
     pagecolor="#ffffff"
     bordercolor="#666666"
     borderopacity="1"
     objecttolerance="10"
     gridtolerance="10"
     guidetolerance="10"
     inkscape:pageopacity="0"
     inkscape:pageshadow="2"
     inkscape:window-width="929"
     inkscape:window-height="585"
     id="namedview11755"
     showgrid="false"
     inkscape:zoom="0.19666667"
     inkscape:cx="-879.43472"
     inkscape:cy="600.00003"
     inkscape:window-x="276"
     inkscape:window-y="150"
     inkscape:window-maximized="0"
     inkscape:current-layer="g11749" />
  <rect
     fill-opacity="0"
     fill="rgb(0,0,0)"
     height="300"
     width="300"
     y="-150"
     x="-150"
     id="rect11741" />
  <g
     style="fill:#ffffff;stroke-linejoin:round"
     id="g11749">
    <path
       style="fill:#f7eaa6;fill-opacity:1;stroke:none;stroke-width:0.89999998;stroke-linecap:butt;stroke-linejoin:round"
       inkscape:connector-curvature="0"
       id="path11743"
       d="M -0.00218,132.30006 88.43488,85.666556 110.54365,-132.29994 h -221.0877 l 22.10877,217.966496 z" />
    <path
       style="fill:#000000;stroke:none;stroke-width:0.89999998;stroke-linecap:butt;stroke-linejoin:round"
       inkscape:connector-curvature="0"
       id="path11745"
       d="m 9.9122209,-35.354644 c 0,-1.679994 0.8400061,-2.183994 3.3600061,-2.351997 2.351997,0 11.592,0 18.98397,0.335997 -2.52,-5.04 -5.208003,-12.6 -6.048,-17.97597 -12.096,0 -20.9999701,0 -27.7200001,2.687994 -6.552,2.688003 -8.400006,7.728003 -8.400006,16.80003 V -4.6105906 H -74.927809 V 14.20544 h 64.68003 v 15.624 h -48.384 v 17.80803 h 48.384 V 63.4295 h 20.32803 V 14.20553 h 22.68 v 37.96803 h 20.32803 V 14.20553 h 22.51197 V -4.6105006 H 9.9122209 Z M 44.856251,-6.6266446 c 7.056,-12.4319694 19.152,-25.3680294 31.248,-33.2639994 -4.871997,-2.855997 -13.77603,-9.072 -17.80803,-12.93597 -11.92797,9.576 -25.53597,24.86403 -34.10397,39.816 z m -120.96,-34.9440294 c 6.383997,10.584 20.99997,25.36803 33.09597,35.6159694 l 16.29603,-10.2480294 c -6.048,-5.375997 -12.6,-12.096 -18.47997,-18.648 l 16.128,4.536 c 13.77603,-31.41603 43.848,-41.328 91.8963,-44.856 -4.032,-5.04 -7.895997,-13.104 -9.576,-19.48797 -52.2479701,6.383997 -85.00797,19.32003 -101.808,55.77597 -4.200003,-5.04 -7.728003,-10.08 -9.91197,-14.112 z" />
    <path
       style="fill:none;stroke:#000000;stroke-width:9;stroke-linecap:butt;stroke-linejoin:round;stroke-opacity:1"
       inkscape:connector-curvature="0"
       id="path11747"
       d="M -0.00218,132.30006 88.43488,85.666556 110.54365,-132.29994 h -221.0877 l 22.10877,217.966496 z" />
  </g>
</svg>
