<?xml version="1.0" encoding="UTF-8" standalone="no"?>
<svg
   xmlns:dc="http://purl.org/dc/elements/1.1/"
   xmlns:cc="http://creativecommons.org/ns#"
   xmlns:rdf="http://www.w3.org/1999/02/22-rdf-syntax-ns#"
   xmlns:svg="http://www.w3.org/2000/svg"
   xmlns="http://www.w3.org/2000/svg"
   xmlns:sodipodi="http://sodipodi.sourceforge.net/DTD/sodipodi-0.dtd"
   xmlns:inkscape="http://www.inkscape.org/namespaces/inkscape"
   version="1.1"
   style="overflow:visible"
   viewBox="-150 -150 300 300"
   height="1200px"
   width="1200px"
   id="svg11753"
   sodipodi:docname="1FU.svg"
   inkscape:version="0.92.5 (2060ec1f9f, 2020-04-08)">
  <metadata
     id="metadata11759">
    <rdf:RDF>
      <cc:Work
         rdf:about="">
        <dc:format>image/svg+xml</dc:format>
        <dc:type
           rdf:resource="http://purl.org/dc/dcmitype/StillImage" />
        <dc:title />
      </cc:Work>
    </rdf:RDF>
  </metadata>
  <defs
     id="defs11757" />
  <sodipodi:namedview
     pagecolor="#ffffff"
     bordercolor="#666666"
     borderopacity="1"
     objecttolerance="10"
     gridtolerance="10"
     guidetolerance="10"
     inkscape:pageopacity="0"
     inkscape:pageshadow="2"
     inkscape:window-width="696"
     inkscape:window-height="480"
     id="namedview11755"
     showgrid="false"
     inkscape:zoom="0.19666667"
     inkscape:cx="-244.06779"
     inkscape:cy="600.00001"
     inkscape:window-x="222"
     inkscape:window-y="107"
     inkscape:window-maximized="0"
     inkscape:current-layer="g11749" />
  <rect
     height="300"
     width="300"
     y="-150.00006"
     x="-150"
     id="rect11741"
     transform="scale(-1)"
     style="fill:#000000;fill-opacity:0" />
  <g
     style="fill:#ffffff;stroke-linejoin:round"
     id="g11749"
     transform="rotate(-180,0,3.2624952e-5)">
    <path
       style="fill:#f7eaa6;stroke:none;stroke-linecap:butt;stroke-linejoin:round;fill-opacity:1"
       inkscape:connector-curvature="0"
       id="path11743"
       d="M 0.002,-147 -98.2614,-95.185 -122.8267,147 h 245.653 L 98.261,-95.185 Z" />
    <path
       style="fill:#000000;stroke:none;stroke-linecap:butt;stroke-linejoin:round"
       inkscape:connector-curvature="0"
       id="path11745"
       d="m -11.014001,39.283 c 0,1.86666 -0.93334,2.42666 -3.73334,2.61333 -2.61333,0 -12.88,0 -21.0933,-0.37333 2.8,5.6 5.78667,14 6.72,19.9733 13.44,0 23.3333,0 30.8,-2.98666 7.28,-2.98667 9.33334,-8.58667 9.33334,-18.6667 v -34.72 h 72.24 v -20.9067 h -71.8667 v -17.36 h 53.76 v -19.7867 h -53.76 v -17.5467 h -22.5867 v 54.6933 h -25.2 v -42.1867 h -22.5867 v 42.1867 h -25.0133 v 20.9067 h 72.9867 z m -38.8267,-31.92 c -7.84,13.8133 -21.28,28.1867 -34.72,36.96 5.41333,3.17333 15.3067,10.08 19.7867,14.3733 13.2533,-10.64 28.3733,-27.6267 37.8933,-44.24 z m 134.4,38.8267 c -7.09333,-11.76 -23.3333,-28.1867 -36.7733,-39.5733 l -18.1067,11.3867 c 6.72,5.97333 14,13.44 20.5333,20.72 l -17.92,-5.04 c -15.3067,34.9067 -48.72,45.92 -102.107,49.84 4.48,5.6 8.77333,14.56 10.64,21.6533 58.0533,-7.09333 94.4533,-21.4667 113.12,-61.9733 4.66667,5.6 8.58667,11.2 11.0133,15.68 z" />
    <path
       style="fill:none;stroke:#000000;stroke-width:10;stroke-linecap:butt;stroke-linejoin:round;stroke-opacity:1"
       inkscape:connector-curvature="0"
       id="path11747"
       d="M 0.002,-147 -98.2614,-95.185 -122.8267,147 h 245.653 L 98.261,-95.185 Z" />
  </g>
</svg>
