<?xml version="1.0" encoding="UTF-8" standalone="no"?>
<svg
   xmlns:dc="http://purl.org/dc/elements/1.1/"
   xmlns:cc="http://creativecommons.org/ns#"
   xmlns:rdf="http://www.w3.org/1999/02/22-rdf-syntax-ns#"
   xmlns:svg="http://www.w3.org/2000/svg"
   xmlns="http://www.w3.org/2000/svg"
   xmlns:sodipodi="http://sodipodi.sourceforge.net/DTD/sodipodi-0.dtd"
   xmlns:inkscape="http://www.inkscape.org/namespaces/inkscape"
   version="1.1"
   style="overflow:visible"
   viewBox="-150 -150 300 300"
   height="1200px"
   width="1200px"
   id="svg4481"
   sodipodi:docname="1GI.svg"
   inkscape:version="0.92.5 (2060ec1f9f, 2020-04-08)">
  <metadata
     id="metadata4487">
    <rdf:RDF>
      <cc:Work
         rdf:about="">
        <dc:format>image/svg+xml</dc:format>
        <dc:type
           rdf:resource="http://purl.org/dc/dcmitype/StillImage" />
        <dc:title />
      </cc:Work>
    </rdf:RDF>
  </metadata>
  <defs
     id="defs4485" />
  <sodipodi:namedview
     pagecolor="#ffffff"
     bordercolor="#666666"
     borderopacity="1"
     objecttolerance="10"
     gridtolerance="10"
     guidetolerance="10"
     inkscape:pageopacity="0"
     inkscape:pageshadow="2"
     inkscape:window-width="696"
     inkscape:window-height="480"
     id="namedview4483"
     showgrid="false"
     inkscape:zoom="0.19666667"
     inkscape:cx="-244.06779"
     inkscape:cy="600.00001"
     inkscape:window-x="242"
     inkscape:window-y="104"
     inkscape:window-maximized="0"
     inkscape:current-layer="g4477" />
  <rect
     height="300"
     width="300"
     y="-150.00006"
     x="-150"
     id="rect4469"
     transform="scale(-1)"
     style="fill:#000000;fill-opacity:0" />
  <g
     style="fill:#ffffff;stroke-linejoin:round"
     id="g4477"
     transform="rotate(-180,0,3.2624952e-5)">
    <path
       style="fill:#f7eaa6;stroke:none;stroke-linecap:butt;stroke-linejoin:round;fill-opacity:1"
       inkscape:connector-curvature="0"
       id="path4471"
       d="M 0.002,-147 -98.2614,-95.185 -122.8267,147 h 245.653 L 98.261,-95.185 Z" />
    <path
       style="fill:#000000;stroke:none;stroke-linecap:butt;stroke-linejoin:round"
       inkscape:connector-curvature="0"
       id="path4473"
       d="m 16.892999,20.617 h 10.4533 c 3.36,17.7333 8.026669,33.6 14.7467,47.04 -8.4,1.86667 -16.9867,3.73334 -25.2,5.6 z m 41.44,-64.773301 v 12.88 h -41.44 v -12.88 z m -41.44,45.1733 v -13.6267 h 41.44 v 13.6267 z m -79.3334,-25.5733 c 7.84001,-8.58667 13.8134,-17.36 18.8533,-25.3867 7.84001,7.46667 16.239999,17.5467 21.84,25.3867 z m 134.213,49.84 c -4.66667,5.04 -11.76,11.3867 -18.48,16.4267 -2.61333,-6.53333 -4.48,-13.6267 -6.15999,-21.0933 h 32.2933 v -84.3733 h -83.2534 v 141.12 l -6.15999,1.12 -0.56,-10.08 c -8.58667,1.49333 -17.36,2.8 -25.9467,4.29333 v -46.2933 h 24.64 v -18.8533 h -24.64 v -13.6267 h 20.5333 v -17.7333 l 11.3867,-13.44 c -6.90665,-10.08 -21.6533,-23.8933 -33.04,-33.2267 h -18.1067 c -6.53333,14.3733 -17.92,31.92 -34.5333,45.1733 4.48,2.98667 10.64,10.2667 13.6267,14.7467 l 2.98666,-2.61334 v 7.09334 h 17.92 v 13.6267 h -26.1333 v 18.8533 h 26.1333 v 49.28 c -10.8267,1.68 -20.72,2.98667 -28.7467,4.10667 l 4.29332,19.7867 c 18.1067,-2.98666 41.8134,-7.09333 64.586698,-11.3867 l 3.73334,13.440001 c 16.4267,-3.733341 37.1467,-8.586671 56.56,-13.440001 l -2.42666,-19.7867 c 8.02666,15.4933 18.6667,27.6267 33.7867,35.653301 2.98665,-5.786661 9.33333,-14.186701 14.1867,-18.480001 -12.5067,-5.78666 -22.0267,-15.12 -29.12,-27.0667 8.02666,-5.04 17.7333,-11.76 25.5733,-18.1067 z m -151.947,11.9467 c 2.98667,10.2667 5.78667,23.52 6.34667,32.479999 l 15.3067,-4.29334 c -0.93333,-8.58666 -3.92,-21.84 -7.09333,-31.92 z m 58.6133,29.8667 c 3.17333,-8.02666 6.90666,-20.16 10.64,-31.1733 l -16.8,-4.106672 c -1.12,9.14667 -4.29333,22.7733 -6.90666,31.36 z" />
    <path
       style="fill:none;stroke:#000000;stroke-width:10;stroke-linecap:butt;stroke-linejoin:round;stroke-opacity:1"
       inkscape:connector-curvature="0"
       id="path4475"
       d="M 0.002,-147 -98.2614,-95.185 -122.8267,147 h 245.653 L 98.261,-95.185 Z" />
  </g>
</svg>
