<?xml version="1.0" encoding="UTF-8" standalone="no"?>
<svg
   xmlns:dc="http://purl.org/dc/elements/1.1/"
   xmlns:cc="http://creativecommons.org/ns#"
   xmlns:rdf="http://www.w3.org/1999/02/22-rdf-syntax-ns#"
   xmlns:svg="http://www.w3.org/2000/svg"
   xmlns="http://www.w3.org/2000/svg"
   xmlns:sodipodi="http://sodipodi.sourceforge.net/DTD/sodipodi-0.dtd"
   xmlns:inkscape="http://www.inkscape.org/namespaces/inkscape"
   version="1.1"
   style="overflow:visible"
   viewBox="-150 -150 300 300"
   height="1200px"
   width="1200px"
   id="svg8949"
   sodipodi:docname="1HI.svg"
   inkscape:version="0.92.5 (2060ec1f9f, 2020-04-08)">
  <metadata
     id="metadata8955">
    <rdf:RDF>
      <cc:Work
         rdf:about="">
        <dc:format>image/svg+xml</dc:format>
        <dc:type
           rdf:resource="http://purl.org/dc/dcmitype/StillImage" />
        <dc:title />
      </cc:Work>
    </rdf:RDF>
  </metadata>
  <defs
     id="defs8953" />
  <sodipodi:namedview
     pagecolor="#ffffff"
     bordercolor="#666666"
     borderopacity="1"
     objecttolerance="10"
     gridtolerance="10"
     guidetolerance="10"
     inkscape:pageopacity="0"
     inkscape:pageshadow="2"
     inkscape:window-width="696"
     inkscape:window-height="480"
     id="namedview8951"
     showgrid="false"
     inkscape:zoom="0.19666667"
     inkscape:cx="-244.06779"
     inkscape:cy="600.00001"
     inkscape:window-x="178"
     inkscape:window-y="50"
     inkscape:window-maximized="0"
     inkscape:current-layer="g8945" />
  <rect
     height="300"
     width="300"
     y="-150.00006"
     x="-150"
     id="rect8937"
     style="fill:#000000;fill-opacity:0"
     transform="scale(-1)" />
  <g
     style="fill:#ffffff;stroke-linejoin:round"
     id="g8945"
     transform="rotate(-180,0,3.2624952e-5)">
    <path
       style="fill:#eedf85;stroke:none;stroke-linecap:butt;stroke-linejoin:round;fill-opacity:1"
       inkscape:connector-curvature="0"
       id="path8939"
       d="M 0.002,-147 -98.2614,-95.185 -122.8267,147 h 245.653 L 98.261,-95.185 Z" />
    <path
       style="fill:#000000;stroke:none;stroke-linecap:butt;stroke-linejoin:round"
       inkscape:connector-curvature="0"
       id="path8941"
       d="m 65.985999,-66.557 c -3.1733,5.6 -9.1466,14.1867 -13.8133,19.2267 l 13.0667,7.28 c 5.6,-4.29333 12.32,-10.8267 19.7866,-17.5467 z m 17.5467,39.0133 c -7.84,-6.34667 -23.7067,-15.8667 -35.28,-21.6533 l -5.9733,5.6 c -0.9334,-5.97334 -1.4934,-12.32 -1.8667,-18.6667 h -115.92 v 19.7867 h 97.8133 c 4.1067,29.3067 13.8134,54.1333 43.68,57.8667 11.5734,2.24 19.04,-3.92 22.2134,-20.3467 -4.1067,-2.61334 -8.96,-7.84 -12.5067,-12.1333 -1.12,8.21334 -2.6133,13.6267 -5.04,13.2533 -13.8133,-1.12 -21.6533,-12.88 -25.9467,-28.56 9.8934,5.97333 20.3467,12.88 25.76,17.92 z m -7.6533,93.8933 c -1.12,10.64 -2.6134,17.5467 -5.04,17.1733 -12.6934,-1.12 -19.4134,-13.6267 -23.1467,-31.1733 9.7067,5.78666 19.7867,12.32 25.2,17.1733 z m 9.8933,-10.2667 c -4.6667,-3.92 -12.1333,-8.58667 -19.9733,-12.88 5.4133,-4.29334 12.1333,-10.64 19.4133,-17.1733 l -19.04,-8.96 c -3.1733,5.6 -9.1467,13.8133 -13.8133,19.04 l -3.7334,-1.86666 -3.1733,3.17333 c -1.12,-9.52 -1.4933,-19.7867 -1.68,-29.8667 h -39.76 v -44.8 h -21.6533 v 44.8 h -21.4667 v -26.5067 h -1.12 c 6.9067,-4.29334 13.2533,-8.96 18.2933,-13.8133 l -18.8533,-7.28 c -10.4533,8.77334 -30.0533,16.239999 -47.6,20.72 3.92,3.92 9.8933,12.6933 12.5067,16.9867 5.04,-1.68 10.4533,-3.92 15.68,-6.16 v 16.0533 h -24.4534 v 20.16 h 24.08 c -1.3066,20.9067 -6.9066,43.3067 -28,61.04 5.04,3.17333 12.88,10.2667 16.4267,14.9333 25.3867,-21.6533 31.5467,-50.0267 32.853299,-75.9733 h 21.6534 v 73.36 h 21.6533 v -73.36 h 19.9733 c 2.4267,38.64 9.7067,71.4933 41.8134,75.7867 12.32,2.42667 19.6,-4.66666 22.7733,-24.2667 -4.1067,-2.42667 -8.96,-8.02667 -12.5067,-12.88 z" />
    <path
       style="fill:none;stroke:#000000;stroke-width:10;stroke-linecap:butt;stroke-linejoin:round;stroke-opacity:1"
       inkscape:connector-curvature="0"
       id="path8943"
       d="M 0.002,-147 -98.2614,-95.185 -122.8267,147 h 245.653 L 98.261,-95.185 Z" />
  </g>
</svg>
