<?xml version="1.0" encoding="UTF-8" standalone="no"?>
<svg
   xmlns:dc="http://purl.org/dc/elements/1.1/"
   xmlns:cc="http://creativecommons.org/ns#"
   xmlns:rdf="http://www.w3.org/1999/02/22-rdf-syntax-ns#"
   xmlns:svg="http://www.w3.org/2000/svg"
   xmlns="http://www.w3.org/2000/svg"
   xmlns:sodipodi="http://sodipodi.sourceforge.net/DTD/sodipodi-0.dtd"
   xmlns:inkscape="http://www.inkscape.org/namespaces/inkscape"
   version="1.1"
   style="overflow:visible"
   viewBox="-150 -150 300 300"
   height="1200px"
   width="1200px"
   id="svg10362"
   sodipodi:docname="1KA.svg"
   inkscape:version="0.92.5 (2060ec1f9f, 2020-04-08)">
  <metadata
     id="metadata10368">
    <rdf:RDF>
      <cc:Work
         rdf:about="">
        <dc:format>image/svg+xml</dc:format>
        <dc:type
           rdf:resource="http://purl.org/dc/dcmitype/StillImage" />
        <dc:title></dc:title>
      </cc:Work>
    </rdf:RDF>
  </metadata>
  <defs
     id="defs10366" />
  <sodipodi:namedview
     pagecolor="#ffffff"
     bordercolor="#666666"
     borderopacity="1"
     objecttolerance="10"
     gridtolerance="10"
     guidetolerance="10"
     inkscape:pageopacity="0"
     inkscape:pageshadow="2"
     inkscape:window-width="1016"
     inkscape:window-height="776"
     id="namedview10364"
     showgrid="false"
     inkscape:zoom="0.19666667"
     inkscape:cx="347.31461"
     inkscape:cy="600.00002"
     inkscape:window-x="112"
     inkscape:window-y="0"
     inkscape:window-maximized="0"
     inkscape:current-layer="g10358" />
  <rect
     fill-opacity="0"
     fill="rgb(0,0,0)"
     height="300"
     width="300"
     y="-150"
     x="-150"
     id="rect10350" />
  <g
     style="fill:#ffffff;stroke-linejoin:round"
     id="g10358">
    <path
       style="fill:#f7eaa6;fill-opacity:1;stroke:none;stroke-width:0.89999998;stroke-linecap:butt;stroke-linejoin:round"
       inkscape:connector-curvature="0"
       id="path10352"
       d="M -0.00218,132.30006 88.43488,85.666556 110.54365,-132.29994 h -221.0877 l 22.10877,217.966496 z" />
    <path
       style="fill:#000000;stroke:none;stroke-width:0.89999998;stroke-linecap:butt;stroke-linejoin:round"
       inkscape:connector-curvature="0"
       id="path10354"
       d="m -14.979848,-38.787757 v 15.95997 h -30.91203 v -15.95997 z m 18.9839702,15.95997 v -15.95997 H 34.244122 c -0.840006,5.375997 -1.176003,10.75203 -1.344006,15.95997 z m -13.104,62.16003 c 2.351997,-4.200003 5.207994,-8.736003 7.895997,-12.6 H 33.404089 c -3.528,4.032 -6.719994,8.399997 -9.74403,12.6 z M 32.732122,9.2602727 H 4.0041222 v -15.28803 H 32.732122 Z m -78.624,-15.28803 h 30.91203 v 15.28803 h -30.91203 z m -19.82403,32.7600003 h 42.67197 c -5.04,6.887997 -9.91197,14.28003 -13.608,20.83203 l 13.608,8.904006 3.192003,-0.840006 h 33.264 c -1.176003,2.016 -2.351997,4.200003 -3.359997,6.216003 l 21.33603,3.696004 c 7.896006,-16.46397 22.34403,-35.61597 43.67997,-50.06403 -4.367997,-2.855997 -11.088,-9.9119695 -14.112,-14.6159985 -3.024,2.3519969 -6.048,4.7040029 -8.903997,7.2240029 V -16.947716 c 0,-20.32803 2.351997,-45.02403 26.37603,-61.992 -4.032,-2.688003 -11.42397,-10.080003 -14.112,-13.943973 -13.77603,9.744033 -21.84003,23.015973 -26.208,36.960033 h -83.99997 v -13.27203 c 0,-3.192003 1.343997,-4.200003 4.871997,-4.368006 3.696005,0 17.47197,-0.167994 29.232,0.504 -2.855997,-5.207994 -6.552,-13.77603 -7.56,-19.320033 -16.632,0 -28.224,0.335997 -35.95203,3.359997 -7.727994,3.192006 -10.41597,8.568003 -10.41597,19.487973 z" />
    <path
       style="fill:none;stroke:#000000;stroke-width:9;stroke-linecap:butt;stroke-linejoin:round;stroke-opacity:1"
       inkscape:connector-curvature="0"
       id="path10356"
       d="M -0.00218,132.30006 88.43488,85.666556 110.54365,-132.29994 h -221.0877 l 22.10877,217.966496 z" />
  </g>
</svg>
