<?xml version="1.0" encoding="UTF-8" standalone="no"?>
<svg
   xmlns:dc="http://purl.org/dc/elements/1.1/"
   xmlns:cc="http://creativecommons.org/ns#"
   xmlns:rdf="http://www.w3.org/1999/02/22-rdf-syntax-ns#"
   xmlns:svg="http://www.w3.org/2000/svg"
   xmlns="http://www.w3.org/2000/svg"
   xmlns:sodipodi="http://sodipodi.sourceforge.net/DTD/sodipodi-0.dtd"
   xmlns:inkscape="http://www.inkscape.org/namespaces/inkscape"
   version="1.1"
   style="overflow:visible"
   viewBox="-150 -150 300 300"
   height="1200px"
   width="1200px"
   id="svg3764"
   sodipodi:docname="1KI.svg"
   inkscape:version="0.92.5 (2060ec1f9f, 2020-04-08)">
  <metadata
     id="metadata3770">
    <rdf:RDF>
      <cc:Work
         rdf:about="">
        <dc:format>image/svg+xml</dc:format>
        <dc:type
           rdf:resource="http://purl.org/dc/dcmitype/StillImage" />
        <dc:title />
      </cc:Work>
    </rdf:RDF>
  </metadata>
  <defs
     id="defs3768" />
  <sodipodi:namedview
     pagecolor="#ffffff"
     bordercolor="#666666"
     borderopacity="1"
     objecttolerance="10"
     gridtolerance="10"
     guidetolerance="10"
     inkscape:pageopacity="0"
     inkscape:pageshadow="2"
     inkscape:window-width="696"
     inkscape:window-height="480"
     id="namedview3766"
     showgrid="false"
     inkscape:zoom="0.19666667"
     inkscape:cx="-244.06779"
     inkscape:cy="600.00001"
     inkscape:window-x="205"
     inkscape:window-y="247"
     inkscape:window-maximized="0"
     inkscape:current-layer="g3760" />
  <rect
     height="300"
     width="300"
     y="-150.00006"
     x="-150"
     id="rect3752"
     transform="scale(-1)"
     style="fill:#000000;fill-opacity:0" />
  <g
     style="fill:#ffffff;stroke-linejoin:round"
     id="g3760"
     transform="rotate(-180,0,3.2624952e-5)">
    <path
       style="fill:#f7eaa6;stroke:none;stroke-linecap:butt;stroke-linejoin:round;fill-opacity:1"
       inkscape:connector-curvature="0"
       id="path3754"
       d="M 0.002,-147 -98.2614,-95.185 -122.8267,147 h 245.653 L 98.261,-95.185 Z" />
    <path
       style="fill:#000000;stroke:none;stroke-linecap:butt;stroke-linejoin:round"
       inkscape:connector-curvature="0"
       id="path3756"
       d="m -13.067001,41.896999 v 37.3333 h -25.2 l 15.3067,-6.53334 c -2.8,-8.58666 -10.08,-21.28 -17.1733,-30.8 z m -21.0933,-56.9333 c 13.44,-11.2 25.0133,-23.3333 33.04,-34.5333 8.2133,11.2 20.5333,23.3333 34.3467,34.5333 z m 70.3733,56.9333 c -4.106602,9.89334 -11.5733,23.52 -17.7333,32.2933 l 12.1333,5.04 h -20.3466 v -37.3333 h 57.4933 v -19.04 h -57.4933 v -18.48 h 35.6533 v -9.70667 c 9.3333,6.72 19.04,12.88 28.3733,17.7333 4.1067,-6.90667 9.1467,-14.3733 14.7467,-19.9733 -29.4933,-11.9467 -59.5467,-35.4667 -79.7067,-63.6533 h -22.96 c -13.8133,22.4 -43.68,50.4 -75.4133,65.8933 4.8533,4.66667 11.0133,12.6933 13.8133,17.92 9.52,-5.04 19.04,-11.0133 27.8134,-17.36 v 9.14667 h 34.3466 v 18.48 h -56.7466 v 19.04 h 28.56 l -16.9867,7.28 c 6.5333,9.14667 12.6933,21.6533 15.4933,30.0533 h -36.4 v 19.04 h 157.92 v -19.04 h -42.1866 c 6.5333,-7.84 13.8133,-19.2267 20.9066,-29.4933 z" />
    <path
       style="fill:none;stroke:#000000;stroke-width:10;stroke-linecap:butt;stroke-linejoin:round;stroke-opacity:1"
       inkscape:connector-curvature="0"
       id="path3758"
       d="M 0.002,-147 -98.2614,-95.185 -122.8267,147 h 245.653 L 98.261,-95.185 Z" />
  </g>
</svg>
