<?xml version="1.0" encoding="UTF-8" standalone="no"?>
<svg
   xmlns:dc="http://purl.org/dc/elements/1.1/"
   xmlns:cc="http://creativecommons.org/ns#"
   xmlns:rdf="http://www.w3.org/1999/02/22-rdf-syntax-ns#"
   xmlns:svg="http://www.w3.org/2000/svg"
   xmlns="http://www.w3.org/2000/svg"
   xmlns:sodipodi="http://sodipodi.sourceforge.net/DTD/sodipodi-0.dtd"
   xmlns:inkscape="http://www.inkscape.org/namespaces/inkscape"
   version="1.1"
   style="overflow:visible"
   viewBox="-150 -150 300 300"
   height="1200px"
   width="1200px"
   id="svg3764"
   sodipodi:docname="1KI.svg"
   inkscape:version="0.92.5 (2060ec1f9f, 2020-04-08)">
  <metadata
     id="metadata3770">
    <rdf:RDF>
      <cc:Work
         rdf:about="">
        <dc:format>image/svg+xml</dc:format>
        <dc:type
           rdf:resource="http://purl.org/dc/dcmitype/StillImage" />
        <dc:title></dc:title>
      </cc:Work>
    </rdf:RDF>
  </metadata>
  <defs
     id="defs3768" />
  <sodipodi:namedview
     pagecolor="#ffffff"
     bordercolor="#666666"
     borderopacity="1"
     objecttolerance="10"
     gridtolerance="10"
     guidetolerance="10"
     inkscape:pageopacity="0"
     inkscape:pageshadow="2"
     inkscape:window-width="1054"
     inkscape:window-height="690"
     id="namedview3766"
     showgrid="false"
     inkscape:zoom="0.19666667"
     inkscape:cx="899.99997"
     inkscape:cy="600.00002"
     inkscape:window-x="156"
     inkscape:window-y="61"
     inkscape:window-maximized="0"
     inkscape:current-layer="g3760" />
  <rect
     fill-opacity="0"
     fill="rgb(0,0,0)"
     height="300"
     width="300"
     y="-150"
     x="-150"
     id="rect3752" />
  <g
     style="fill:#ffffff;stroke-linejoin:round"
     id="g3760">
    <path
       style="fill:#f7eaa6;fill-opacity:1;stroke:none;stroke-width:0.89999998;stroke-linecap:butt;stroke-linejoin:round"
       inkscape:connector-curvature="0"
       id="path3754"
       d="M -0.00218,132.30006 88.43488,85.666556 110.54365,-132.29994 h -221.0877 l 22.10877,217.966496 z" />
    <path
       style="fill:#000000;stroke:none;stroke-width:0.89999998;stroke-linecap:butt;stroke-linejoin:round"
       inkscape:connector-curvature="0"
       id="path3756"
       d="m 11.759921,-37.707243 v -33.59997 h 22.68 l -13.77603,5.880006 c 2.52,7.727994 9.072,19.152 15.45597,27.72 z m 18.98397,51.23997 c -12.096,10.08 -22.5119701,20.99997 -29.7360001,31.07997 -7.39197,-10.08 -18.4799699,-20.99997 -30.9120299,-31.07997 z m -63.33597,-51.23997 c 3.695942,-8.904006 10.41597,-21.168 15.95997,-29.06397 l -10.91997,-4.536 h 18.3119399 v 33.59997 H -60.984109 v 17.136 H -9.2401391 V -3.9392437 H -41.328109 v 8.736003 c -8.39997,-6.048 -17.136,-11.592 -25.53597,-15.9599693 -3.69603,6.2160023 -8.23203,12.9359693 -13.27203,17.9759693 C -53.592139,17.56479 -26.544079,38.73279 -8.4000791,64.10073 H 12.263921 c 12.43197,-20.16 39.312,-45.36 67.87197,-59.3039707 -4.36797,-4.20000294 -9.91197,-11.42397 -12.43197,-16.1279993 -8.568,4.5359993 -17.136,9.9119693 -25.03206,15.6239993 v -8.232003 H 11.759921 V -20.571243 h 51.07194 v -17.136 h -25.704 l 15.28803,-6.552 c -5.87997,-8.232003 -11.42397,-19.48797 -13.94397,-27.04797 h 32.76 v -17.136 h -142.128 v 17.136 h 37.96794 c -5.87997,7.056 -12.43197,17.30403 -18.81594,26.54397 z" />
    <path
       style="fill:none;stroke:#000000;stroke-width:9;stroke-linecap:butt;stroke-linejoin:round;stroke-opacity:1"
       inkscape:connector-curvature="0"
       id="path3758"
       d="M -0.00218,132.30006 88.43488,85.666556 110.54365,-132.29994 h -221.0877 l 22.10877,217.966496 z" />
  </g>
</svg>
