<?xml version="1.0" encoding="UTF-8" standalone="no"?>
<svg
   xmlns:dc="http://purl.org/dc/elements/1.1/"
   xmlns:cc="http://creativecommons.org/ns#"
   xmlns:rdf="http://www.w3.org/1999/02/22-rdf-syntax-ns#"
   xmlns:svg="http://www.w3.org/2000/svg"
   xmlns="http://www.w3.org/2000/svg"
   xmlns:sodipodi="http://sodipodi.sourceforge.net/DTD/sodipodi-0.dtd"
   xmlns:inkscape="http://www.inkscape.org/namespaces/inkscape"
   version="1.1"
   style="overflow:visible"
   viewBox="-150 -150 300 300"
   height="1200px"
   width="1200px"
   id="svg5237"
   sodipodi:docname="1NG.svg"
   enable-background="new"
   inkscape:version="0.92.5 (2060ec1f9f, 2020-04-08)">
  <metadata
     id="metadata5243">
    <rdf:RDF>
      <cc:Work
         rdf:about="">
        <dc:format>image/svg+xml</dc:format>
        <dc:type
           rdf:resource="http://purl.org/dc/dcmitype/StillImage" />
        <dc:title />
      </cc:Work>
    </rdf:RDF>
  </metadata>
  <defs
     id="defs5241" />
  <sodipodi:namedview
     pagecolor="#ffffff"
     bordercolor="#666666"
     borderopacity="1"
     objecttolerance="10"
     gridtolerance="10"
     guidetolerance="10"
     inkscape:pageopacity="0"
     inkscape:pageshadow="2"
     inkscape:window-width="949"
     inkscape:window-height="699"
     id="namedview5239"
     showgrid="false"
     inkscape:zoom="0.55625733"
     inkscape:cx="132.63427"
     inkscape:cy="1173.4672"
     inkscape:window-x="151"
     inkscape:window-y="51"
     inkscape:window-maximized="0"
     inkscape:current-layer="g5233" />
  <rect
     fill-opacity="0"
     fill="rgb(0,0,0)"
     height="300"
     width="300"
     y="-150"
     x="-150"
     id="rect5225" />
  <g
     style="fill:#ffffff;stroke-linejoin:round"
     id="g5233">
    <path
       style="fill:#f7eaa6;stroke:none;stroke-linecap:butt;stroke-linejoin:round;fill-opacity:1"
       inkscape:connector-curvature="0"
       id="path5227"
       d="M -0.0024,147.00007 98.261,95.185065 122.8263,-146.99993 h -245.653 l 24.5653,242.184995 z" />
    <path
       style="fill:#aa0000;stroke:none;stroke-linecap:butt;stroke-linejoin:round"
       inkscape:connector-curvature="0"
       id="path5229"
       d="M 47.6936,3.4630652 C 28.2803,17.836365 11.6669,34.636365 1.0269,49.756365 -9.7998,34.636365 -27.7198,17.649666 -47.1331,3.4630652 Z M -10.7331,-57.016935 h -52.2667 v 19.4133 h 52.2667 v 21.4667 h -43.68 v 14.5600002 c -6.72,-4.66667 -13.44,-8.7733302 -20.16,-12.5067002 -4.10667,6.9066702 -8.96,14.00000025 -14.7467,19.9733002 29.4933,12.5066998 59.92,36.9599998 79.8933,65.3332998 h 22.96 c 13.8133,-22.7733 43.8667,-51.52 75.7867,-67.5732998 -5.04,-4.66667 -11.2,-12.6933 -14,-17.9200002 -7.09333,3.92 -14,8.2133302 -20.72,12.8800002 V -16.137035 H 12.4135 v -21.4667 h 51.7067 v -19.4133 H 12.4135 v -22.2133 h 66.64 v -19.9733 h -158.853 v 19.9733 h 69.0667 z" />
    <path
       style="fill:none;stroke:#000000;stroke-width:10;stroke-linecap:butt;stroke-linejoin:round;stroke-opacity:1"
       inkscape:connector-curvature="0"
       id="path5231"
       d="M -0.0024,147.00007 98.261,95.185065 122.8263,-146.99993 h -245.653 l 24.5653,242.184995 z" />
  </g>
</svg>
