<?xml version="1.0" encoding="UTF-8" standalone="no"?>
<svg
   xmlns:dc="http://purl.org/dc/elements/1.1/"
   xmlns:cc="http://creativecommons.org/ns#"
   xmlns:rdf="http://www.w3.org/1999/02/22-rdf-syntax-ns#"
   xmlns:svg="http://www.w3.org/2000/svg"
   xmlns="http://www.w3.org/2000/svg"
   xmlns:sodipodi="http://sodipodi.sourceforge.net/DTD/sodipodi-0.dtd"
   xmlns:inkscape="http://www.inkscape.org/namespaces/inkscape"
   version="1.1"
   style="overflow:visible;enable-background:new"
   viewBox="-150 -150 350 350"
   height="1400"
   width="1400"
   id="svg5237"
   sodipodi:docname="1NG.svg"
   inkscape:version="0.92.5 (2060ec1f9f, 2020-04-08)">
  <metadata
     id="metadata5243">
    <rdf:RDF>
      <cc:Work
         rdf:about="">
        <dc:format>image/svg+xml</dc:format>
        <dc:type
           rdf:resource="http://purl.org/dc/dcmitype/StillImage" />
        <dc:title></dc:title>
      </cc:Work>
    </rdf:RDF>
  </metadata>
  <defs
     id="defs5241" />
  <sodipodi:namedview
     pagecolor="#ffffff"
     bordercolor="#666666"
     borderopacity="1"
     objecttolerance="10"
     gridtolerance="10"
     guidetolerance="10"
     inkscape:pageopacity="0"
     inkscape:pageshadow="2"
     inkscape:window-width="949"
     inkscape:window-height="699"
     id="namedview5239"
     showgrid="false"
     inkscape:zoom="0.19666667"
     inkscape:cx="31.355979"
     inkscape:cy="700.00002"
     inkscape:window-x="151"
     inkscape:window-y="51"
     inkscape:window-maximized="0"
     inkscape:current-layer="g5233"
     fit-margin-top="100"
     fit-margin-left="100"
     fit-margin-right="100"
     fit-margin-bottom="100" />
  <rect
     height="300"
     width="300"
     y="-175"
     x="-175"
     id="rect5225"
     style="fill:#000000;fill-opacity:0"
     transform="scale(-1)" />
  <g
     style="fill:#ffffff;stroke-linejoin:round"
     id="g5233"
     transform="translate(25,25)">
    <path
       style="fill:#f7eaa6;fill-opacity:1;stroke:none;stroke-width:0.89999998;stroke-linecap:butt;stroke-linejoin:round"
       inkscape:connector-curvature="0"
       id="path5227"
       d="M -0.00178,132.3 88.43528,85.666497 110.54405,-132.3 h -221.0877 l 22.10877,217.966497 z" />
    <path
       style="fill:#aa0000;stroke:none;stroke-width:0.89999998;stroke-linecap:butt;stroke-linejoin:round"
       inkscape:connector-curvature="0"
       id="path5229"
       d="M 42.92462,3.1166967 C 25.45265,16.052667 10.50059,31.172667 0.92459,44.780667 -8.81944,31.172667 -24.94744,15.884638 -42.41941,3.1166967 Z M -9.65941,-51.315303 h -47.04003 v 17.47197 h 47.04003 v 19.32003 h -39.312 v 13.1039997 c -6.048,-4.200003 -12.096,-7.895997 -18.144,-11.2560297 -3.696003,6.2160027 -8.064,12.59999974 -13.27203,17.9759697 26.54397,11.2560303 53.928,33.2640003 71.90397,58.7999703 h 20.664 c 12.43197,-20.49597 39.48003,-46.368 68.20803,-60.8159703 -4.536,-4.20000296 -10.08,-11.42397 -12.6,-16.1279997 -6.383997,3.5279997 -12.6,7.3919967 -18.648,11.5919997 V -14.523393 H 11.17253 v -19.32003 h 46.53603 v -17.47197 H 11.17253 v -19.99197 h 59.976 v -17.97597 h -142.9677 v 17.97597 h 62.16003 z" />
    <path
       style="fill:none;stroke:#000000;stroke-width:9;stroke-linecap:butt;stroke-linejoin:round;stroke-opacity:1"
       inkscape:connector-curvature="0"
       id="path5231"
       d="M -0.00178,132.3 88.43528,85.666497 110.54405,-132.3 h -221.0877 l 22.10877,217.966497 z" />
  </g>
</svg>
