<?xml version="1.0" encoding="UTF-8" standalone="no"?>
<svg
   xmlns:dc="http://purl.org/dc/elements/1.1/"
   xmlns:cc="http://creativecommons.org/ns#"
   xmlns:rdf="http://www.w3.org/1999/02/22-rdf-syntax-ns#"
   xmlns:svg="http://www.w3.org/2000/svg"
   xmlns="http://www.w3.org/2000/svg"
   xmlns:sodipodi="http://sodipodi.sourceforge.net/DTD/sodipodi-0.dtd"
   xmlns:inkscape="http://www.inkscape.org/namespaces/inkscape"
   version="1.1"
   style="overflow:visible"
   viewBox="-150 -150 350 350"
   height="1400"
   width="1400"
   id="svg9651"
   sodipodi:docname="1RY.svg"
   inkscape:version="0.92.5 (2060ec1f9f, 2020-04-08)">
  <metadata
     id="metadata9657">
    <rdf:RDF>
      <cc:Work
         rdf:about="">
        <dc:format>image/svg+xml</dc:format>
        <dc:type
           rdf:resource="http://purl.org/dc/dcmitype/StillImage" />
        <dc:title></dc:title>
      </cc:Work>
    </rdf:RDF>
  </metadata>
  <defs
     id="defs9655" />
  <sodipodi:namedview
     pagecolor="#ffffff"
     bordercolor="#666666"
     borderopacity="1"
     objecttolerance="10"
     gridtolerance="10"
     guidetolerance="10"
     inkscape:pageopacity="0"
     inkscape:pageshadow="2"
     inkscape:window-width="740"
     inkscape:window-height="480"
     id="namedview9653"
     showgrid="false"
     inkscape:zoom="0.19666667"
     inkscape:cx="562.7119"
     inkscape:cy="800.00003"
     inkscape:window-x="301"
     inkscape:window-y="259"
     inkscape:window-maximized="0"
     inkscape:current-layer="g9647"
     fit-margin-top="100"
     fit-margin-left="100"
     fit-margin-right="100"
     fit-margin-bottom="100" />
  <rect
     height="300"
     width="300"
     y="-175"
     x="-175"
     id="rect9639"
     style="fill:#000000;fill-opacity:0"
     transform="scale(-1)" />
  <g
     style="fill:#ffffff;stroke-linejoin:round"
     id="g9647"
     transform="translate(25,25)">
    <path
       style="fill:#f7eaa6;fill-opacity:1;stroke:none;stroke-width:0.89999998;stroke-linecap:butt;stroke-linejoin:round"
       inkscape:connector-curvature="0"
       id="path9641"
       d="M -0.00178,132.3 88.43528,85.666497 110.54405,-132.3 h -221.0877 l 22.10877,217.966497 z" />
    <path
       style="fill:#b10000;fill-opacity:1;stroke:none;stroke-width:0.89999998;stroke-linecap:butt;stroke-linejoin:round"
       inkscape:connector-curvature="0"
       id="path9643"
       d="m -20.075379,36.213297 c 1.68003,-4.367997 4.20003,-9.91197 6.21603,-14.112 l -5.37606,-0.671994 h 43.00803 l -5.20803,1.175994 c 0.84006,3.864006 3.024,9.072 5.544,13.608 z m -53.75997,-14.78403 h 38.808 c -2.18403,3.695994 -4.70403,8.568 -7.39206,14.112 l 5.37606,0.671994 h -27.88803 v 16.128 h 56.7839699 v 11.25603 H 12.852651 v -11.25603 h 54.60003 v -16.128 h -26.54406 l 4.032,-0.839997 c -2.18403,-4.032 -4.536,-9.40797 -5.71203,-13.94397 h 38.47203 V 4.7972937 h -151.5357 z m 114.2397,-73.08 v 10.75203 h -28.224 v -10.75203 z m -28.224,33.768 v -9.74403 h 28.224 v 9.74403 z m -50.06403,-9.74403 h 30.0720608 v 9.74403 H -37.883678 Z m 30.0720608,-24.02397 v 10.75203 H -37.883678 v -10.75203 z m -11.5919998,-26.54397 c 9.7439398,0 11.5919998,1.008 11.5919998,7.895997 v 3.696005 H -58.547678 V -2.9306715 H 60.564623 V -72.818641 h -20.16 v 6.216003 h -28.224 v -3.863997 c 0,-17.97597 -6.3839703,-23.184002 -29.567969,-23.184002 h -34.10406 c -18.47997,0 -24.02397,5.711996 -26.208,24.696002 5.20803,1.175994 12.76803,3.695994 17.30403,6.552 1.008,-13.27203 2.85597,-15.79203 10.75203,-15.79203 z" />
    <path
       style="fill:none;stroke:#000000;stroke-width:9;stroke-linecap:butt;stroke-linejoin:round;stroke-opacity:1"
       inkscape:connector-curvature="0"
       id="path9645"
       d="M -0.00178,132.3 88.43528,85.666497 110.54405,-132.3 h -221.0877 l 22.10877,217.966497 z" />
  </g>
</svg>
