<?xml version="1.0" encoding="UTF-8" standalone="no"?>
<svg
   xmlns:dc="http://purl.org/dc/elements/1.1/"
   xmlns:cc="http://creativecommons.org/ns#"
   xmlns:rdf="http://www.w3.org/1999/02/22-rdf-syntax-ns#"
   xmlns:svg="http://www.w3.org/2000/svg"
   xmlns="http://www.w3.org/2000/svg"
   xmlns:sodipodi="http://sodipodi.sourceforge.net/DTD/sodipodi-0.dtd"
   xmlns:inkscape="http://www.inkscape.org/namespaces/inkscape"
   version="1.1"
   style="overflow:visible"
   viewBox="-150 -150 300 300"
   height="1200px"
   width="1200px"
   id="svg9651"
   sodipodi:docname="1RY.svg"
   inkscape:version="0.92.5 (2060ec1f9f, 2020-04-08)">
  <metadata
     id="metadata9657">
    <rdf:RDF>
      <cc:Work
         rdf:about="">
        <dc:format>image/svg+xml</dc:format>
        <dc:type
           rdf:resource="http://purl.org/dc/dcmitype/StillImage" />
        <dc:title />
      </cc:Work>
    </rdf:RDF>
  </metadata>
  <defs
     id="defs9655" />
  <sodipodi:namedview
     pagecolor="#ffffff"
     bordercolor="#666666"
     borderopacity="1"
     objecttolerance="10"
     gridtolerance="10"
     guidetolerance="10"
     inkscape:pageopacity="0"
     inkscape:pageshadow="2"
     inkscape:window-width="696"
     inkscape:window-height="480"
     id="namedview9653"
     showgrid="false"
     inkscape:zoom="0.19666667"
     inkscape:cx="-244.06779"
     inkscape:cy="600.00001"
     inkscape:window-x="332"
     inkscape:window-y="111"
     inkscape:window-maximized="0"
     inkscape:current-layer="g9647" />
  <rect
     fill-opacity="0"
     fill="rgb(0,0,0)"
     height="300"
     width="300"
     y="-150"
     x="-150"
     id="rect9639" />
  <g
     style="fill:#ffffff;stroke-linejoin:round"
     id="g9647">
    <path
       style="fill:#eedf85;stroke:none;stroke-linecap:butt;stroke-linejoin:round;fill-opacity:1"
       inkscape:connector-curvature="0"
       id="path9641"
       d="M -0.0024,147.00007 98.261,95.185065 122.8263,-146.99993 h -245.653 l 24.5653,242.184995 z" />
    <path
       style="fill:#b10000;fill-opacity:1;stroke:none;stroke-linecap:butt;stroke-linejoin:round"
       inkscape:connector-curvature="0"
       id="path9643"
       d="m -22.306399,40.237065 c 1.8667,-4.85333 4.6667,-11.0133 6.9067,-15.68 l -5.9734,-0.74666 h 47.7867 l -5.7867,1.30666 c 0.9334,4.29334 3.36,10.08 6.16,15.12 z m -59.7333,-16.4267 h 43.12 c -2.4267,4.10666 -5.2267,9.52 -8.2134,15.68 l 5.9734,0.74666 h -30.9867 v 17.92 h 63.0933 v 12.5067 h 23.3334 v -12.5067 h 60.6667 v -17.92 h -29.4934 l 4.48,-0.93333 c -2.4267,-4.48 -5.04,-10.4533 -6.3467,-15.4933 h 42.7467 V 5.3303952 h -168.373 z m 126.933,-81.2 v 11.9467 h -31.36 v -11.9467 z m -31.36,37.52 v -10.8267 h 31.36 v 10.8267 z m -55.6267,-10.8267 h 33.413401 v 10.8267 h -33.4134 z m 33.413401,-26.6933 v 11.9467 h -33.4134 v -11.9467 z m -12.88,-29.4933 c 10.8266,0 12.88,1.12 12.88,8.77333 v 4.106672 h -56.3734 V -3.2562328 H 67.293603 V -80.909533 h -22.4 v 6.90667 h -31.36 v -4.29333 c 0,-19.9733 -7.0933,-25.759997 -32.853299,-25.759997 h -37.8934 c -20.5333,0 -26.6933,6.346657 -29.12,27.439997 5.7867,1.30666 14.1867,4.10666 19.2267,7.28 1.12,-14.7467 3.1733,-17.5467 11.9467,-17.5467 z" />
    <path
       style="fill:none;stroke:#000000;stroke-width:10;stroke-linecap:butt;stroke-linejoin:round;stroke-opacity:1"
       inkscape:connector-curvature="0"
       id="path9645"
       d="M -0.0024,147.00007 98.261,95.185065 122.8263,-146.99993 h -245.653 l 24.5653,242.184995 z" />
  </g>
</svg>
